<svg width="61" height="60" viewBox="0 0 61 60" fill="none" xmlns="http://www.w3.org/2000/svg">
<path d="M17.4121 21.6008H39.0592V27.3993H31.1208V43.2468H24.6183V27.3993L17.4121 27.3709V21.6008Z" fill="white"/>
<path d="M39.0719 4.50696H0V60H55.5101V21.4561H47.5163V52.0436H7.95682V12.4122H39.0719V4.50696Z" fill="#00AC5F"/>
<path d="M42.4629 0V18.0949H60.5587V0H42.4629ZM51.6537 14.9974C50.0245 14.9974 47.7357 14.3463 47.1315 11.9993L49.5938 11.3482C50.0828 13.2545 53.263 13.2161 53.1578 11.2047C53.1578 10.4001 52.3915 9.72056 50.1496 9.82575V7.9095C52.3432 8.0147 52.9275 7.38211 52.899 6.46237C52.8422 4.9868 50.2832 4.80484 49.9392 6.55761L47.467 5.97335C47.9688 4.29024 49.5113 3.11746 51.6793 3.11746C53.8472 3.11746 55.6243 4.56744 55.6243 6.33585C55.6243 8.10426 55.3712 8.28764 53.7278 8.74964V8.81645C54.4529 8.91596 55.8873 9.77316 55.8873 11.4634C55.8873 13.1536 54.5851 14.9504 51.6537 14.9988V14.9974Z" fill="white"/>
</svg>
