<svg width="1440" height="1063" viewBox="0 0 1440 1063" fill="none" xmlns="http://www.w3.org/2000/svg">
<g clip-path="url(#clip0_80_86)">
<mask id="path-1-inside-1_80_86" fill="white">
<path d="M0 0H1440V1063H0V0Z"/>
</mask>
<g opacity="0.2" filter="url(#filter0_f_80_86)">
<ellipse cx="1341.55" cy="1103.01" rx="324.623" ry="264.871" transform="rotate(-9.69855 1341.55 1103.01)" fill="#3D5CDB"/>
</g>
<rect width="344" height="1" transform="matrix(-1 -3.0496e-09 3.27831e-09 1 1440 806)" fill="url(#paint0_linear_80_86)" fill-opacity="0.1"/>
<rect width="344" height="1" transform="matrix(-1 -3.0496e-09 3.27831e-09 1 1440 776)" fill="url(#paint1_linear_80_86)" fill-opacity="0.1"/>
<rect width="344" height="1" transform="matrix(-1 -3.0496e-09 3.27831e-09 1 1440 746)" fill="url(#paint2_linear_80_86)" fill-opacity="0.1"/>
</g>
<path d="M1440 1063V1061H0V1063V1065H1440V1063Z" fill="white" fill-opacity="0.1" mask="url(#path-1-inside-1_80_86)"/>
<defs>
<filter id="filter0_f_80_86" x="518.426" y="336.208" width="1646.24" height="1533.61" filterUnits="userSpaceOnUse" color-interpolation-filters="sRGB">
<feFlood flood-opacity="0" result="BackgroundImageFix"/>
<feBlend mode="normal" in="SourceGraphic" in2="BackgroundImageFix" result="shape"/>
<feGaussianBlur stdDeviation="250" result="effect1_foregroundBlur_80_86"/>
</filter>
<linearGradient id="paint0_linear_80_86" x1="0" y1="0.5" x2="344" y2="0.5" gradientUnits="userSpaceOnUse">
<stop stop-color="white"/>
<stop offset="1" stop-color="white" stop-opacity="0"/>
</linearGradient>
<linearGradient id="paint1_linear_80_86" x1="0" y1="0.5" x2="344" y2="0.5" gradientUnits="userSpaceOnUse">
<stop stop-color="white"/>
<stop offset="1" stop-color="white" stop-opacity="0"/>
</linearGradient>
<linearGradient id="paint2_linear_80_86" x1="0" y1="0.5" x2="344" y2="0.5" gradientUnits="userSpaceOnUse">
<stop stop-color="white"/>
<stop offset="1" stop-color="white" stop-opacity="0"/>
</linearGradient>
<clipPath id="clip0_80_86">
<path d="M0 0H1440V1063H0V0Z" fill="white"/>
</clipPath>
</defs>
</svg>
