<svg width="1440" height="787" viewBox="0 0 1440 787" fill="none" xmlns="http://www.w3.org/2000/svg">
<g clip-path="url(#clip0_72_1091)">
<mask id="path-1-inside-1_72_1091" fill="white">
<path d="M0 0H1440V787H0V0Z"/>
</mask>
<g opacity="0.15" filter="url(#filter0_f_72_1091)">
<ellipse cx="170.81" cy="1071.18" rx="830.639" ry="346.971" transform="rotate(-170.133 170.81 1071.18)" fill="#00AAFF"/>
</g>
<mask id="mask0_72_1091" style="mask-type:alpha" maskUnits="userSpaceOnUse" x="0" y="0" width="1440" height="787">
<rect width="1440" height="787" fill="url(#paint0_linear_72_1091)"/>
</mask>
<g mask="url(#mask0_72_1091)">
<rect x="79" width="1" height="887" fill="white" fill-opacity="0.05"/>
<rect x="1140" width="1" height="887" fill="white" fill-opacity="0.05"/>
<rect x="929" width="1" height="887" fill="white" fill-opacity="0.05"/>
<rect x="1351" width="1" height="887" fill="white" fill-opacity="0.05"/>
<rect x="716" width="1" height="887" fill="white" fill-opacity="0.05"/>
<rect x="503" width="1" height="887" fill="white" fill-opacity="0.05"/>
<rect x="290" width="1" height="887" fill="white" fill-opacity="0.05"/>
<rect x="1440" y="642.001" width="1.00006" height="1440" transform="rotate(90 1440 642.001)" fill="white" fill-opacity="0.05"/>
<rect x="1440" y="451.001" width="1.00006" height="1440" transform="rotate(90 1440 451.001)" fill="white" fill-opacity="0.05"/>
<rect x="1440" y="260" width="1.00006" height="1440" transform="rotate(90 1440 260)" fill="white" fill-opacity="0.05"/>
<rect x="1440" y="69" width="1.00006" height="1440" transform="rotate(90 1440 69)" fill="white" fill-opacity="0.05"/>
</g>
</g>
<path d="M1440 787V785H0V787V789H1440V787Z" fill="white" fill-opacity="0.1" mask="url(#path-1-inside-1_72_1091)"/>
<defs>
<filter id="filter0_f_72_1091" x="-1049.74" y="300.791" width="2441.09" height="1540.77" filterUnits="userSpaceOnUse" color-interpolation-filters="sRGB">
<feFlood flood-opacity="0" result="BackgroundImageFix"/>
<feBlend mode="normal" in="SourceGraphic" in2="BackgroundImageFix" result="shape"/>
<feGaussianBlur stdDeviation="200" result="effect1_foregroundBlur_72_1091"/>
</filter>
<linearGradient id="paint0_linear_72_1091" x1="720" y1="0" x2="720" y2="787" gradientUnits="userSpaceOnUse">
<stop stop-color="white"/>
<stop offset="1" stop-color="white" stop-opacity="0"/>
</linearGradient>
<clipPath id="clip0_72_1091">
<path d="M0 0H1440V787H0V0Z" fill="white"/>
</clipPath>
</defs>
</svg>
