<svg width="1440" height="1020" viewBox="0 0 1440 1020" fill="none" xmlns="http://www.w3.org/2000/svg">
<g clip-path="url(#clip0_72_909)">
<mask id="path-1-inside-1_72_909" fill="white">
<path d="M0 0H1440V1020H0V0Z"/>
</mask>
<g opacity="0.5" filter="url(#filter0_f_72_909)">
<ellipse cx="941.839" cy="1323.24" rx="336.5" ry="242" transform="rotate(9.50387 941.839 1323.24)" fill="#3D5CDB"/>
</g>
<g opacity="0.2" filter="url(#filter1_f_72_909)">
<ellipse cx="1460.65" cy="660.17" rx="408" ry="200" transform="rotate(123.922 1460.65 660.17)" fill="#027CC4"/>
</g>
<g opacity="0.2" filter="url(#filter2_f_72_909)">
<ellipse cx="324.631" cy="458.158" rx="231.643" ry="357.934" transform="rotate(-9.69855 324.631 458.158)" fill="#00AAFF"/>
</g>
<mask id="mask0_72_909" style="mask-type:alpha" maskUnits="userSpaceOnUse" x="164" y="151" width="554" height="568">
<ellipse opacity="0.3" cx="440.835" cy="434.998" rx="276.011" ry="283.552" transform="rotate(-9.69855 440.835 434.998)" fill="#049FB4"/>
</mask>
<g mask="url(#mask0_72_909)">
<g opacity="0.2">
<rect x="-26.0049" y="112.816" width="214.092" height="160.069" rx="19" stroke="white" stroke-width="2"/>
<rect x="-26.0049" y="272.361" width="214.092" height="160.069" rx="19" stroke="white" stroke-width="2"/>
<rect x="-26.0049" y="431.906" width="214.092" height="160.069" rx="19" stroke="white" stroke-width="2"/>
<rect x="-26.0049" y="591.452" width="214.092" height="160.069" rx="19" stroke="white" stroke-width="2"/>
<rect x="187.926" y="112.816" width="214.092" height="160.069" rx="19" stroke="white" stroke-width="2"/>
<rect x="187.927" y="272.361" width="214.092" height="160.069" rx="19" stroke="white" stroke-width="2"/>
<rect x="187.927" y="431.906" width="214.092" height="160.069" rx="19" stroke="white" stroke-width="2"/>
<rect x="187.927" y="591.452" width="214.092" height="160.069" rx="19" stroke="white" stroke-width="2"/>
<rect x="401.857" y="112.816" width="214.092" height="160.069" rx="19" stroke="white" stroke-width="2"/>
<rect x="401.857" y="272.361" width="214.092" height="160.069" rx="19" stroke="white" stroke-width="2"/>
<rect x="401.857" y="431.906" width="214.092" height="160.069" rx="19" stroke="white" stroke-width="2"/>
<rect x="401.857" y="591.452" width="214.092" height="160.069" rx="19" stroke="white" stroke-width="2"/>
<rect x="615.949" y="112.816" width="214.092" height="160.069" rx="19" stroke="white" stroke-width="2"/>
<rect x="615.948" y="272.361" width="214.092" height="160.069" rx="19" stroke="white" stroke-width="2"/>
<rect x="615.948" y="431.906" width="214.092" height="160.069" rx="19" stroke="white" stroke-width="2"/>
<rect x="615.948" y="591.452" width="214.092" height="160.069" rx="19" stroke="white" stroke-width="2"/>
</g>
</g>
</g>
<path d="M1440 1020V1018H0V1020V1022H1440V1020Z" fill="white" fill-opacity="0.1" mask="url(#path-1-inside-1_72_909)"/>
<defs>
<filter id="filter0_f_72_909" x="7.52734" y="478.125" width="1868.62" height="1690.23" filterUnits="userSpaceOnUse" color-interpolation-filters="sRGB">
<feFlood flood-opacity="0" result="BackgroundImageFix"/>
<feBlend mode="normal" in="SourceGraphic" in2="BackgroundImageFix" result="shape"/>
<feGaussianBlur stdDeviation="300" result="effect1_foregroundBlur_72_909"/>
</filter>
<filter id="filter1_f_72_909" x="678.875" y="-196.407" width="1563.55" height="1713.16" filterUnits="userSpaceOnUse" color-interpolation-filters="sRGB">
<feFlood flood-opacity="0" result="BackgroundImageFix"/>
<feBlend mode="normal" in="SourceGraphic" in2="BackgroundImageFix" result="shape"/>
<feGaussianBlur stdDeviation="250" result="effect1_foregroundBlur_72_909"/>
</filter>
<filter id="filter2_f_72_909" x="-411.587" y="-396.844" width="1472.44" height="1710" filterUnits="userSpaceOnUse" color-interpolation-filters="sRGB">
<feFlood flood-opacity="0" result="BackgroundImageFix"/>
<feBlend mode="normal" in="SourceGraphic" in2="BackgroundImageFix" result="shape"/>
<feGaussianBlur stdDeviation="250" result="effect1_foregroundBlur_72_909"/>
</filter>
<clipPath id="clip0_72_909">
<path d="M0 0H1440V1020H0V0Z" fill="white"/>
</clipPath>
</defs>
</svg>
