<svg width="1440" height="887" viewBox="0 0 1440 887" fill="none" xmlns="http://www.w3.org/2000/svg">
<g clip-path="url(#clip0_72_828)">
<mask id="path-1-inside-1_72_828" fill="white">
<path d="M0 0H1440V887H0V0Z"/>
</mask>
<g opacity="0.2" filter="url(#filter0_f_72_828)">
<ellipse cx="1341.55" cy="1006.77" rx="324.623" ry="264.871" transform="rotate(-9.69855 1341.55 1006.77)" fill="#00AAFF"/>
</g>
<rect width="370" height="1" transform="matrix(-1 -3.0496e-09 3.27831e-09 1 1440 628)" fill="url(#paint0_linear_72_828)" fill-opacity="0.1"/>
<rect width="370" height="1" transform="matrix(-1 -3.0496e-09 3.27831e-09 1 1440 598)" fill="url(#paint1_linear_72_828)" fill-opacity="0.1"/>
<rect width="370" height="1" transform="matrix(-1 -3.0496e-09 3.27831e-09 1 1440 568)" fill="url(#paint2_linear_72_828)" fill-opacity="0.1"/>
</g>
<path d="M1440 887V885H0V887V889H1440V887Z" fill="white" fill-opacity="0.1" mask="url(#path-1-inside-1_72_828)"/>
<defs>
<filter id="filter0_f_72_828" x="518.427" y="239.968" width="1646.24" height="1533.61" filterUnits="userSpaceOnUse" color-interpolation-filters="sRGB">
<feFlood flood-opacity="0" result="BackgroundImageFix"/>
<feBlend mode="normal" in="SourceGraphic" in2="BackgroundImageFix" result="shape"/>
<feGaussianBlur stdDeviation="250" result="effect1_foregroundBlur_72_828"/>
</filter>
<linearGradient id="paint0_linear_72_828" x1="0" y1="0.5" x2="370" y2="0.5" gradientUnits="userSpaceOnUse">
<stop stop-color="white"/>
<stop offset="1" stop-color="white" stop-opacity="0"/>
</linearGradient>
<linearGradient id="paint1_linear_72_828" x1="0" y1="0.5" x2="370" y2="0.5" gradientUnits="userSpaceOnUse">
<stop stop-color="white"/>
<stop offset="1" stop-color="white" stop-opacity="0"/>
</linearGradient>
<linearGradient id="paint2_linear_72_828" x1="0" y1="0.5" x2="370" y2="0.5" gradientUnits="userSpaceOnUse">
<stop stop-color="white"/>
<stop offset="1" stop-color="white" stop-opacity="0"/>
</linearGradient>
<clipPath id="clip0_72_828">
<path d="M0 0H1440V887H0V0Z" fill="white"/>
</clipPath>
</defs>
</svg>
