<svg width="197" height="40" viewBox="0 0 197 40" fill="none" xmlns="http://www.w3.org/2000/svg">
<path d="M39.5317 6.18567L10.7416 16.5674C10.0346 16.7728 9.41304 17.2015 8.96992 17.7894C8.52679 18.3773 8.28588 19.0929 8.2832 19.8291V36.0806C8.2832 38.7109 10.8751 40.5926 13.4407 39.8278L42.2309 29.446C42.9375 29.2403 43.5586 28.8115 44.0013 28.2236C44.444 27.6357 44.6846 26.9203 44.6872 26.1844V9.9329C44.6872 7.30255 42.0993 5.42084 39.5317 6.18567ZM26.2566 30.6054C22.3798 30.6054 19.2376 27.5259 19.2376 23.726C19.2376 19.9262 22.3798 16.8467 26.2566 16.8467C30.1333 16.8467 33.2755 19.9282 33.2755 23.726C33.2755 27.5238 30.1333 30.6054 26.2566 30.6054Z" fill="#00AAFF"/>
<path d="M33.9456 23.4229L5.15548 33.8047C2.58988 34.5695 0 32.6858 0 30.0574V13.8059C0.00441891 13.0711 0.246134 12.3574 0.68913 11.7711C1.13213 11.1848 1.75269 10.7574 2.45836 10.5524L31.2465 0.17266C33.8141 -0.594187 36.406 1.28955 36.406 3.91989V20.1694C36.4008 20.9043 36.1586 21.6179 35.7153 22.2041C35.272 22.7903 34.6513 23.2177 33.9456 23.4229Z" fill="white"/>
<path d="M50.084 12.6481V9.81543H64.9879V12.6481H59.2153V28.4929H55.8566V12.6481H50.084Z" fill="white"/>
<path d="M65.2451 28.4937V14.482H68.4481V16.819H68.5937C68.8076 16.0615 69.272 15.3989 69.9109 14.9393C70.5366 14.5 71.2852 14.2698 72.0496 14.2817C72.2337 14.2817 72.4381 14.2817 72.6566 14.3039C72.8474 14.3153 73.0372 14.3383 73.2252 14.3727V17.4078C73.0098 17.3433 72.789 17.2986 72.5656 17.2742C72.2764 17.2363 71.9851 17.2167 71.6935 17.2155C71.2796 17.202 70.8671 17.2703 70.4796 17.4165C70.0921 17.5627 69.7373 17.7838 69.4355 18.0674C69.1399 18.3475 68.907 18.6871 68.7522 19.0637C68.5973 19.4404 68.524 19.8455 68.5371 20.2526V28.4896L65.2451 28.4937Z" fill="white"/>
<path d="M78.2008 28.7768C76.8627 28.7768 75.7465 28.418 74.8522 27.7004C73.9578 26.9828 73.5113 25.9367 73.5127 24.5622C73.5127 23.5101 73.7663 22.694 74.2735 22.114C74.8041 21.5166 75.4886 21.0764 76.2523 20.8413C77.0903 20.5712 77.9543 20.3895 78.83 20.299C80.0643 20.1641 80.9505 20.0394 81.4887 19.9247C82.0269 19.81 82.2967 19.5153 82.2981 19.0405V18.9838C82.2981 18.2973 82.0957 17.7658 81.6911 17.3895C81.2864 17.0131 80.6996 16.8243 79.9307 16.8229C79.1214 16.8229 78.4814 16.9996 78.0106 17.353C77.5716 17.6659 77.2401 18.1069 77.0616 18.6156L73.9781 18.1786C74.284 16.9718 75.0474 15.9313 76.1066 15.2771C77.1696 14.6256 78.4362 14.2998 79.9065 14.2998C80.5838 14.3004 81.2587 14.3799 81.9177 14.5365C82.571 14.6897 83.1926 14.9554 83.7549 15.3216C84.3183 15.6943 84.7795 16.202 85.0963 16.7986C85.4562 17.5171 85.6301 18.3143 85.6022 19.1174V28.4936H82.4235V26.5694H82.3223C81.9824 27.2041 81.4805 27.7374 80.8676 28.1152C80.1904 28.5563 79.3015 28.7768 78.2008 28.7768ZM79.0587 26.3488C80.0542 26.3488 80.8446 26.0628 81.43 25.4909C81.7076 25.2323 81.9286 24.919 82.079 24.5708C82.2295 24.2226 82.3061 23.8469 82.3041 23.4676V21.8165C82.0721 21.9712 81.8102 22.0753 81.5353 22.122C81.1609 22.2111 80.7644 22.2839 80.3435 22.3466L79.2772 22.5004C78.6277 22.5746 78.0004 22.7812 77.4339 23.1074C77.1945 23.2509 76.9991 23.4573 76.8689 23.7042C76.7387 23.9511 76.6787 24.229 76.6954 24.5076C76.68 24.7749 76.7331 25.0417 76.8496 25.2829C76.966 25.524 77.1421 25.7314 77.3611 25.8855C77.8651 26.2128 78.4583 26.3754 79.0587 26.3508V26.3488Z" fill="white"/>
<path d="M93.1252 28.7318C92.0778 28.7468 91.0494 28.4518 90.1691 27.884C89.2628 27.2739 88.5479 26.4194 88.1073 25.4196C87.6042 24.3405 87.3519 23.0334 87.3506 21.4984C87.3506 19.9404 87.6076 18.6266 88.1215 17.5569C88.5707 16.5656 89.2938 15.7232 90.2055 15.1289C91.0814 14.5746 92.0989 14.2858 93.1353 14.2973C93.8324 14.2687 94.5262 14.4075 95.1587 14.7019C95.6411 14.9454 96.0692 15.284 96.4172 15.6974C96.6982 16.0349 96.9404 16.4027 97.1395 16.7941H97.2751V9.81152H100.587V28.4931H97.3499V26.2856H97.1476C96.9445 26.6738 96.6959 27.0365 96.4071 27.366C96.0515 27.7728 95.6172 28.1031 95.1303 28.3373C94.5024 28.625 93.8153 28.7602 93.1252 28.7318ZM94.0458 26.0225C94.5243 26.0404 94.9993 25.9343 95.4248 25.7145C95.8502 25.4947 96.2116 25.1687 96.4738 24.7681C97.0444 23.9331 97.3304 22.8371 97.3317 21.4801C97.3331 20.1232 97.0512 19.0386 96.486 18.2266C95.9194 17.4173 95.104 17.0126 94.0398 17.0126C92.9391 17.0126 92.1095 17.4321 91.551 18.2711C90.9926 19.1101 90.7127 20.1839 90.7114 21.4923C90.7114 22.8061 90.994 23.8913 91.5591 24.7478C92.1243 25.6044 92.9532 26.032 94.0458 26.0306V26.0225Z" fill="white"/>
<path d="M109.318 28.7665C107.914 28.7665 106.7 28.4718 105.676 27.8823C104.664 27.2991 103.847 26.4298 103.327 25.3835C102.756 24.195 102.475 22.8878 102.507 21.5695C102.479 20.2569 102.76 18.9559 103.327 17.7717C103.842 16.7171 104.646 15.8307 105.646 15.2162C106.703 14.5885 107.915 14.2709 109.144 14.2996C110.25 14.2897 111.342 14.545 112.329 15.0442C113.322 15.561 114.137 16.3647 114.668 17.3508C115.254 18.3949 115.548 19.7377 115.548 21.3793V22.391H105.793C105.811 23.5888 106.144 24.5222 106.793 25.1913C107.442 25.8604 108.3 26.1976 109.369 26.203C110.015 26.2197 110.653 26.0602 111.216 25.7416C111.734 25.4373 112.13 24.9614 112.335 24.3961L115.416 24.7441C115.135 25.9442 114.407 26.9916 113.379 27.6719C112.306 28.403 110.953 28.7679 109.318 28.7665ZM105.793 20.1653H112.379C112.404 19.2933 112.086 18.4464 111.493 17.8061C111.196 17.4977 110.838 17.2556 110.441 17.0955C110.044 16.9355 109.618 16.8611 109.191 16.8774C108.744 16.8604 108.299 16.9386 107.886 17.1068C107.472 17.2749 107.099 17.5292 106.791 17.8526C106.187 18.4758 105.832 19.2984 105.793 20.1653Z" fill="white"/>
<path d="M116.719 28.4931V9.81152H129.85V13.8987H121.787V17.1097H129.049V21.1949H121.787V28.4931H116.719Z" fill="#00AAFF"/>
<path d="M138.991 22.3647V14.4736H144.033V28.4853H139.248V25.8307H139.102C138.822 26.689 138.26 27.4267 137.505 27.9228C136.711 28.4016 135.805 28.6611 134.878 28.675C133.951 28.6889 133.036 28.4565 132.229 28.0017C131.496 27.5537 130.905 26.9086 130.523 26.1402C130.105 25.2952 129.894 24.3633 129.906 23.4209V14.4817H134.942V22.3728C134.942 23.0647 135.119 23.6084 135.474 24.0036C135.661 24.2054 135.89 24.3634 136.145 24.4663C136.4 24.5691 136.674 24.6143 136.949 24.5984C137.226 24.6115 137.503 24.5652 137.761 24.4626C138.019 24.36 138.252 24.2035 138.444 24.0036C138.815 23.6043 138.997 23.058 138.991 22.3647Z" fill="#00AAFF"/>
<path d="M150.615 20.6128V28.4937H145.579V14.4821H150.358V17.1468H150.508C150.792 16.2854 151.364 15.5477 152.127 15.0567C152.917 14.5779 153.821 14.318 154.746 14.3034C155.67 14.2888 156.582 14.5202 157.387 14.9738C158.119 15.4243 158.711 16.0704 159.095 16.8393C159.51 17.6809 159.715 18.6105 159.692 19.5485V28.4877H154.664V20.6128C154.664 19.9181 154.489 19.3739 154.14 18.98C153.951 18.7792 153.72 18.6222 153.464 18.5198C153.208 18.4174 152.932 18.3721 152.657 18.3871C152.381 18.3737 152.106 18.4197 151.85 18.522C151.593 18.6243 151.362 18.7805 151.172 18.98C150.805 19.3745 150.621 19.9188 150.615 20.6128Z" fill="#00AAFF"/>
<path d="M166.25 28.6751C165.277 28.6819 164.323 28.4102 163.5 27.8921C162.614 27.3099 161.917 26.4824 161.493 25.5106C160.991 24.4464 160.74 23.1056 160.74 21.4882C160.74 19.7967 161.003 18.4222 161.529 17.3647C162.055 16.3071 162.737 15.5315 163.573 15.0378C164.367 14.5586 165.276 14.3034 166.203 14.2993C167.243 14.2993 168.092 14.5596 168.749 15.0803C169.374 15.557 169.857 16.1959 170.145 16.9276H170.218V9.81152H175.254V28.493H170.264V26.1945H170.155C169.859 26.9121 169.361 27.5284 168.722 27.969C167.994 28.4598 167.128 28.7071 166.25 28.6751ZM168.111 24.8085C168.438 24.8165 168.761 24.738 169.048 24.581C169.335 24.424 169.575 24.1939 169.744 23.9142C170.138 23.3167 170.336 22.5073 170.337 21.4862C170.338 20.4651 170.141 19.6517 169.744 19.0461C169.572 18.7701 169.331 18.5438 169.044 18.3898C168.758 18.2358 168.436 18.1593 168.111 18.1679C167.788 18.1574 167.467 18.2335 167.182 18.3882C166.898 18.5429 166.66 18.7707 166.493 19.0481C166.11 19.6349 165.918 20.4482 165.918 21.4882C165.918 22.5282 166.11 23.3416 166.493 23.9284C166.66 24.2058 166.898 24.4336 167.182 24.5883C167.467 24.743 167.788 24.819 168.111 24.8085Z" fill="#00AAFF"/>
<path d="M176.743 28.494V14.4823H181.632V17.1471H181.777C182.032 16.1624 182.437 15.4414 182.991 14.9841C183.541 14.5307 184.235 14.2882 184.948 14.3002C185.381 14.3058 185.811 14.3739 186.225 14.5026V18.7981C185.925 18.7029 185.617 18.6391 185.304 18.6079C184.992 18.5686 184.679 18.547 184.365 18.5432C184.023 18.5331 183.682 18.5927 183.363 18.7182C183.045 18.8438 182.755 19.0327 182.512 19.2736C182.263 19.5279 182.069 19.8306 181.942 20.163C181.815 20.4954 181.757 20.8504 181.773 21.2059V28.5041L176.743 28.494Z" fill="#00AAFF"/>
<path d="M186.867 28.494V14.4823H191.758V17.1471H191.903C192.158 16.1624 192.563 15.4414 193.117 14.9841C193.667 14.5307 194.361 14.2882 195.074 14.3002C195.507 14.3058 195.937 14.3739 196.351 14.5026V18.7981C196.051 18.7029 195.743 18.6391 195.43 18.6079C195.118 18.5686 194.804 18.547 194.489 18.5432C194.147 18.5333 193.807 18.5929 193.489 18.7185C193.17 18.844 192.881 19.0329 192.638 19.2736C192.389 19.5279 192.195 19.8306 192.068 20.163C191.941 20.4954 191.883 20.8504 191.899 21.2059V28.5041L186.867 28.494Z" fill="#00AAFF"/>
</svg>
