<svg width="16" height="19" viewBox="0 0 16 19" fill="none" xmlns="http://www.w3.org/2000/svg">
<path d="M5.12 15L8 12.12L10.88 15L12 13.88L9.12 11L12 8.12L10.88 7L8 9.88L5.12 7L4 8.12L6.88 11L4 13.88L5.12 15ZM8 19C6.89333 19 5.85333 18.79 4.88 18.37C3.90667 17.95 3.06 17.38 2.34 16.66C1.62 15.94 1.05 15.0933 0.63 14.12C0.21 13.1467 0 12.1067 0 11C0 9.89333 0.21 8.85333 0.63 7.88C1.05 6.90667 1.62 6.06 2.34 5.34C3.06 4.62 3.90667 4.05 4.88 3.63C5.85333 3.21 6.89333 3 8 3C9.10667 3 10.1467 3.21 11.12 3.63C12.0933 4.05 12.94 4.62 13.66 5.34C14.38 6.06 14.95 6.90667 15.37 7.88C15.79 8.85333 16 9.89333 16 11C16 12.1067 15.79 13.1467 15.37 14.12C14.95 15.0933 14.38 15.94 13.66 16.66C12.94 17.38 12.0933 17.95 11.12 18.37C10.1467 18.79 9.10667 19 8 19ZM8 17.4C9.78667 17.4 11.3 16.78 12.54 15.54C13.78 14.3 14.4 12.7867 14.4 11C14.4 9.21333 13.78 7.7 12.54 6.46C11.3 5.22 9.78667 4.6 8 4.6C6.21333 4.6 4.7 5.22 3.46 6.46C2.22 7.7 1.6 9.21333 1.6 11C1.6 12.7867 2.22 14.3 3.46 15.54C4.7 16.78 6.21333 17.4 8 17.4Z" fill="white" fill-opacity="0.1"/>
<path d="M5.12 15L8 12.12L10.88 15L12 13.88L9.12 11L12 8.12L10.88 7L8 9.88L5.12 7L4 8.12L6.88 11L4 13.88L5.12 15ZM8 19C6.89333 19 5.85333 18.79 4.88 18.37C3.90667 17.95 3.06 17.38 2.34 16.66C1.62 15.94 1.05 15.0933 0.63 14.12C0.21 13.1467 0 12.1067 0 11C0 9.89333 0.21 8.85333 0.63 7.88C1.05 6.90667 1.62 6.06 2.34 5.34C3.06 4.62 3.90667 4.05 4.88 3.63C5.85333 3.21 6.89333 3 8 3C9.10667 3 10.1467 3.21 11.12 3.63C12.0933 4.05 12.94 4.62 13.66 5.34C14.38 6.06 14.95 6.90667 15.37 7.88C15.79 8.85333 16 9.89333 16 11C16 12.1067 15.79 13.1467 15.37 14.12C14.95 15.0933 14.38 15.94 13.66 16.66C12.94 17.38 12.0933 17.95 11.12 18.37C10.1467 18.79 9.10667 19 8 19ZM8 17.4C9.78667 17.4 11.3 16.78 12.54 15.54C13.78 14.3 14.4 12.7867 14.4 11C14.4 9.21333 13.78 7.7 12.54 6.46C11.3 5.22 9.78667 4.6 8 4.6C6.21333 4.6 4.7 5.22 3.46 6.46C2.22 7.7 1.6 9.21333 1.6 11C1.6 12.7867 2.22 14.3 3.46 15.54C4.7 16.78 6.21333 17.4 8 17.4Z" fill="white" style="mix-blend-mode:overlay"/>
</svg>
