<svg width="16" height="19" viewBox="0 0 16 19" fill="none" xmlns="http://www.w3.org/2000/svg">
<path d="M6.88 14.68L12.52 9.04L11.4 7.92L6.88 12.44L4.6 10.16L3.48 11.28L6.88 14.68ZM8 19C6.89333 19 5.85333 18.79 4.88 18.37C3.90667 17.95 3.06 17.38 2.34 16.66C1.62 15.94 1.05 15.0933 0.63 14.12C0.21 13.1467 0 12.1067 0 11C0 9.89333 0.21 8.85333 0.63 7.88C1.05 6.90667 1.62 6.06 2.34 5.34C3.06 4.62 3.90667 4.05 4.88 3.63C5.85333 3.21 6.89333 3 8 3C9.10667 3 10.1467 3.21 11.12 3.63C12.0933 4.05 12.94 4.62 13.66 5.34C14.38 6.06 14.95 6.90667 15.37 7.88C15.79 8.85333 16 9.89333 16 11C16 12.1067 15.79 13.1467 15.37 14.12C14.95 15.0933 14.38 15.94 13.66 16.66C12.94 17.38 12.0933 17.95 11.12 18.37C10.1467 18.79 9.10667 19 8 19Z" fill="url(#paint0_linear_72_466)"/>
<defs>
<linearGradient id="paint0_linear_72_466" x1="8" y1="3" x2="8" y2="19" gradientUnits="userSpaceOnUse">
<stop stop-color="#00AAFF"/>
<stop offset="1" stop-color="#007BFF"/>
</linearGradient>
</defs>
</svg>
