<svg width="25" height="24" viewBox="0 0 25 24" fill="none" xmlns="http://www.w3.org/2000/svg">
<path d="M6.96484 8.6405H15.6238V10.9599H12.4484V17.2991H9.84738V10.9599L6.96484 10.9486V8.6405Z" fill="white" fill-opacity="0.1"/>
<path d="M6.96484 8.6405H15.6238V10.9599H12.4484V17.2991H9.84738V10.9599L6.96484 10.9486V8.6405Z" fill="white" style="mix-blend-mode:overlay"/>
<path d="M15.6291 1.8028H0V24.0005H22.2045V8.58259H19.0069V20.8178H3.18279V4.96495H15.6291V1.8028Z" fill="white" fill-opacity="0.1"/>
<path d="M15.6291 1.8028H0V24.0005H22.2045V8.58259H19.0069V20.8178H3.18279V4.96495H15.6291V1.8028Z" fill="white" style="mix-blend-mode:overlay"/>
<path d="M16.9854 0V7.23811H24.2238V0H16.9854ZM20.6617 5.99906C20.0101 5.99906 19.0945 5.73863 18.8528 4.79982L19.8378 4.53938C20.0334 5.30192 21.3055 5.28657 21.2634 4.48195C21.2634 4.16011 20.9569 3.8883 20.0601 3.93038V3.16386C20.9375 3.20594 21.1713 2.9529 21.1599 2.585C21.1371 1.99476 20.1136 1.92197 19.9759 2.6231L18.987 2.38939C19.1878 1.71613 19.8048 1.24701 20.672 1.24701C21.5392 1.24701 22.25 1.82701 22.25 2.53439C22.25 3.24177 22.1488 3.31512 21.4914 3.49993V3.52665C21.7814 3.56646 22.3552 3.90934 22.3552 4.58544C22.3552 5.26155 21.8343 5.9803 20.6617 5.99963V5.99906Z" fill="white" fill-opacity="0.1"/>
<path d="M16.9854 0V7.23811H24.2238V0H16.9854ZM20.6617 5.99906C20.0101 5.99906 19.0945 5.73863 18.8528 4.79982L19.8378 4.53938C20.0334 5.30192 21.3055 5.28657 21.2634 4.48195C21.2634 4.16011 20.9569 3.8883 20.0601 3.93038V3.16386C20.9375 3.20594 21.1713 2.9529 21.1599 2.585C21.1371 1.99476 20.1136 1.92197 19.9759 2.6231L18.987 2.38939C19.1878 1.71613 19.8048 1.24701 20.672 1.24701C21.5392 1.24701 22.25 1.82701 22.25 2.53439C22.25 3.24177 22.1488 3.31512 21.4914 3.49993V3.52665C21.7814 3.56646 22.3552 3.90934 22.3552 4.58544C22.3552 5.26155 21.8343 5.9803 20.6617 5.99963V5.99906Z" fill="white" style="mix-blend-mode:overlay"/>
</svg>
