<svg width="16" height="18" viewBox="0 0 16 18" fill="none" xmlns="http://www.w3.org/2000/svg">
<path d="M7.2 14H8.8V9.2H7.2V14ZM8.57 7.37C8.72333 7.21667 8.8 7.02667 8.8 6.8C8.8 6.57333 8.72333 6.38333 8.57 6.23C8.41667 6.07667 8.22667 6 8 6C7.77333 6 7.58333 6.07667 7.43 6.23C7.27667 6.38333 7.2 6.57333 7.2 6.8C7.2 7.02667 7.27667 7.21667 7.43 7.37C7.58333 7.52333 7.77333 7.6 8 7.6C8.22667 7.6 8.41667 7.52333 8.57 7.37ZM8 18C6.89333 18 5.85333 17.79 4.88 17.37C3.90667 16.95 3.06 16.38 2.34 15.66C1.62 14.94 1.05 14.0933 0.63 13.12C0.21 12.1467 0 11.1067 0 10C0 8.89333 0.21 7.85333 0.63 6.88C1.05 5.90667 1.62 5.06 2.34 4.34C3.06 3.62 3.90667 3.05 4.88 2.63C5.85333 2.21 6.89333 2 8 2C9.10667 2 10.1467 2.21 11.12 2.63C12.0933 3.05 12.94 3.62 13.66 4.34C14.38 5.06 14.95 5.90667 15.37 6.88C15.79 7.85333 16 8.89333 16 10C16 11.1067 15.79 12.1467 15.37 13.12C14.95 14.0933 14.38 14.94 13.66 15.66C12.94 16.38 12.0933 16.95 11.12 17.37C10.1467 17.79 9.10667 18 8 18ZM8 16.4C9.78667 16.4 11.3 15.78 12.54 14.54C13.78 13.3 14.4 11.7867 14.4 10C14.4 8.21333 13.78 6.7 12.54 5.46C11.3 4.22 9.78667 3.6 8 3.6C6.21333 3.6 4.7 4.22 3.46 5.46C2.22 6.7 1.6 8.21333 1.6 10C1.6 11.7867 2.22 13.3 3.46 14.54C4.7 15.78 6.21333 16.4 8 16.4Z" fill="white" fill-opacity="0.1"/>
<path d="M7.2 14H8.8V9.2H7.2V14ZM8.57 7.37C8.72333 7.21667 8.8 7.02667 8.8 6.8C8.8 6.57333 8.72333 6.38333 8.57 6.23C8.41667 6.07667 8.22667 6 8 6C7.77333 6 7.58333 6.07667 7.43 6.23C7.27667 6.38333 7.2 6.57333 7.2 6.8C7.2 7.02667 7.27667 7.21667 7.43 7.37C7.58333 7.52333 7.77333 7.6 8 7.6C8.22667 7.6 8.41667 7.52333 8.57 7.37ZM8 18C6.89333 18 5.85333 17.79 4.88 17.37C3.90667 16.95 3.06 16.38 2.34 15.66C1.62 14.94 1.05 14.0933 0.63 13.12C0.21 12.1467 0 11.1067 0 10C0 8.89333 0.21 7.85333 0.63 6.88C1.05 5.90667 1.62 5.06 2.34 4.34C3.06 3.62 3.90667 3.05 4.88 2.63C5.85333 2.21 6.89333 2 8 2C9.10667 2 10.1467 2.21 11.12 2.63C12.0933 3.05 12.94 3.62 13.66 4.34C14.38 5.06 14.95 5.90667 15.37 6.88C15.79 7.85333 16 8.89333 16 10C16 11.1067 15.79 12.1467 15.37 13.12C14.95 14.0933 14.38 14.94 13.66 15.66C12.94 16.38 12.0933 16.95 11.12 17.37C10.1467 17.79 9.10667 18 8 18ZM8 16.4C9.78667 16.4 11.3 15.78 12.54 14.54C13.78 13.3 14.4 11.7867 14.4 10C14.4 8.21333 13.78 6.7 12.54 5.46C11.3 4.22 9.78667 3.6 8 3.6C6.21333 3.6 4.7 4.22 3.46 5.46C2.22 6.7 1.6 8.21333 1.6 10C1.6 11.7867 2.22 13.3 3.46 14.54C4.7 15.78 6.21333 16.4 8 16.4Z" fill="white" style="mix-blend-mode:overlay"/>
</svg>
