<svg width="89" height="18" viewBox="0 0 89 18" fill="none" xmlns="http://www.w3.org/2000/svg">
<path d="M17.7894 2.78345L4.8338 7.45528C4.51565 7.54768 4.23597 7.74059 4.03656 8.00515C3.83715 8.26972 3.72874 8.59172 3.72754 8.92302V16.2362C3.72754 17.4199 4.89389 18.2667 6.04841 17.9225L19.004 13.2507C19.3219 13.1581 19.6014 12.9651 19.8007 12.7006C19.9999 12.436 20.1082 12.1141 20.1093 11.7829V4.46972C20.1093 3.28605 18.9448 2.43928 17.7894 2.78345ZM11.8155 13.7724C10.071 13.7724 8.657 12.3866 8.657 10.6767C8.657 8.96672 10.071 7.58093 11.8155 7.58093C13.5601 7.58093 14.9741 8.96763 14.9741 10.6767C14.9741 12.3857 13.5601 13.7724 11.8155 13.7724Z" fill="#00AAFF"/>
<path d="M15.2755 10.5404L2.31996 15.2122C1.16544 15.5564 0 14.7087 0 13.5259V6.21271C0.00198851 5.88204 0.11076 5.56086 0.310108 5.29703C0.509456 5.0332 0.78871 4.84084 1.10626 4.74861L14.0609 0.0776973C15.2163 -0.267386 16.3827 0.580298 16.3827 1.76396V9.07626C16.3803 9.40697 16.2713 9.7281 16.0719 9.99189C15.8724 10.2557 15.5931 10.448 15.2755 10.5404Z" fill="white"/>
<path d="M22.5371 5.69219V4.41748H29.2439V5.69219H26.6462V12.8224H25.1348V5.69219H22.5371Z" fill="white"/>
<path d="M29.3594 12.822V6.51673H30.8007V7.56837H30.8663C30.9625 7.2275 31.1714 6.92932 31.459 6.7225C31.7406 6.52482 32.0774 6.42124 32.4214 6.42659C32.5043 6.42659 32.5962 6.42659 32.6945 6.4366C32.7804 6.44172 32.8658 6.45206 32.9504 6.46756V7.83333C32.8535 7.80433 32.7541 7.78421 32.6536 7.77323C32.5235 7.75616 32.3924 7.74734 32.2611 7.74683C32.0749 7.74075 31.8893 7.77148 31.7149 7.83726C31.5405 7.90304 31.3809 8.00257 31.245 8.13015C31.112 8.25621 31.0072 8.40902 30.9375 8.57852C30.8679 8.74801 30.8349 8.93034 30.8408 9.1135V12.8202L29.3594 12.822Z" fill="white"/>
<path d="M35.1897 12.9499C34.5876 12.9499 34.0853 12.7884 33.6828 12.4655C33.2804 12.1426 33.0795 11.6718 33.0801 11.0533C33.0801 10.5798 33.1942 10.2126 33.4224 9.95157C33.6612 9.68275 33.9692 9.48465 34.3129 9.37886C34.69 9.25733 35.0788 9.17554 35.4729 9.13484C36.0283 9.07414 36.4271 9.01799 36.6693 8.9664C36.9115 8.9148 37.0329 8.78217 37.0335 8.5685V8.54301C37.0335 8.23404 36.9424 7.99488 36.7603 7.82553C36.5782 7.65617 36.3142 7.57119 35.9682 7.57059C35.604 7.57059 35.316 7.6501 35.1041 7.80914C34.9066 7.94992 34.7574 8.14838 34.6771 8.3773L33.2895 8.18063C33.4272 7.63756 33.7707 7.16934 34.2473 6.87496C34.7257 6.58177 35.2956 6.43518 35.9573 6.43518C36.2621 6.43546 36.5658 6.47121 36.8623 6.54171C37.1563 6.61065 37.436 6.73019 37.689 6.89499C37.9426 7.06269 38.1501 7.29119 38.2927 7.55966C38.4546 7.88297 38.5329 8.24173 38.5203 8.6031V12.8224H37.0899V11.9565H37.0444C36.8914 12.2421 36.6656 12.4821 36.3898 12.6521C36.085 12.8506 35.685 12.9499 35.1897 12.9499ZM35.5758 11.8573C36.0237 11.8573 36.3794 11.7286 36.6429 11.4712C36.7678 11.3548 36.8672 11.2139 36.9349 11.0572C37.0026 10.9004 37.0371 10.7314 37.0362 10.5607V9.81772C36.9318 9.88735 36.8139 9.93419 36.6902 9.95521C36.5218 9.99527 36.3433 10.0281 36.1539 10.0563L35.6741 10.1255C35.3818 10.1588 35.0995 10.2518 34.8446 10.3986C34.7369 10.4632 34.649 10.5561 34.5904 10.6672C34.5318 10.7783 34.5048 10.9033 34.5123 11.0287C34.5054 11.149 34.5292 11.2691 34.5817 11.3776C34.6341 11.4861 34.7133 11.5794 34.8119 11.6488C35.0386 11.796 35.3056 11.8692 35.5758 11.8582V11.8573Z" fill="white"/>
<path d="M41.9062 12.9297C41.4349 12.9364 40.9721 12.8037 40.5759 12.5482C40.1681 12.2736 39.8464 11.8891 39.6481 11.4392C39.4217 10.9536 39.3082 10.3654 39.3076 9.67463C39.3076 8.97354 39.4233 8.38231 39.6545 7.90096C39.8567 7.45487 40.1821 7.0758 40.5923 6.80834C40.9865 6.55894 41.4444 6.42897 41.9107 6.43413C42.2244 6.42128 42.5366 6.48372 42.8212 6.61623C43.0383 6.72579 43.231 6.87817 43.3876 7.0642C43.514 7.21604 43.623 7.38157 43.7126 7.55769H43.7736V4.41553H45.2641V12.8223H43.8073V11.8289H43.7163C43.6249 12.0036 43.513 12.1668 43.383 12.3151C43.223 12.4981 43.0276 12.6468 42.8085 12.7521C42.5259 12.8816 42.2168 12.9425 41.9062 12.9297ZM42.3205 11.7105C42.5358 11.7186 42.7496 11.6708 42.941 11.5719C43.1324 11.473 43.2951 11.3263 43.4131 11.146C43.6698 10.7703 43.7985 10.2771 43.7991 9.66643C43.7997 9.05579 43.6729 8.56775 43.4185 8.20233C43.1636 7.83813 42.7967 7.65603 42.3177 7.65603C41.8224 7.65603 41.4491 7.84481 41.1978 8.22237C40.9465 8.59992 40.8206 9.0831 40.82 9.6719C40.82 10.2631 40.9471 10.7515 41.2015 11.1369C41.4558 11.5224 41.8288 11.7148 42.3205 11.7142V11.7105Z" fill="white"/>
<path d="M49.1919 12.9453C48.56 12.9453 48.0137 12.8126 47.553 12.5474C47.0975 12.2849 46.7297 11.8937 46.4959 11.4229C46.2388 10.8881 46.1124 10.2998 46.1271 9.70659C46.1144 9.11589 46.2407 8.53047 46.4959 7.99757C46.7275 7.52299 47.0894 7.12413 47.5393 6.84759C48.015 6.56513 48.5605 6.4222 49.1136 6.43513C49.6112 6.43067 50.1026 6.54557 50.5467 6.7702C50.9938 7.00275 51.3605 7.36442 51.5992 7.80818C51.8633 8.278 51.9953 8.88228 51.9953 9.621V10.0763H47.6058C47.6137 10.6153 47.7636 11.0353 48.0556 11.3364C48.3475 11.6375 48.7339 11.7892 49.2146 11.7917C49.5054 11.7992 49.7928 11.7274 50.0459 11.5841C50.2792 11.4471 50.4573 11.2329 50.5494 10.9786L51.9361 11.1352C51.8097 11.6752 51.4817 12.1465 51.0193 12.4527C50.5367 12.7817 49.9276 12.9459 49.1919 12.9453ZM47.6058 9.0747H50.5695C50.5804 8.68229 50.4373 8.30119 50.1707 8.01305C50.0372 7.87428 49.8759 7.76531 49.6973 7.69328C49.5187 7.62126 49.3269 7.58781 49.1345 7.59512C48.9337 7.5875 48.7335 7.62269 48.5474 7.69835C48.3612 7.77402 48.1932 7.88843 48.0547 8.03399C47.7829 8.31439 47.6232 8.6846 47.6058 9.0747Z" fill="white"/>
<path d="M52.5234 12.8225V4.41577H58.4326V6.255H54.8042V7.69998H58.072V9.5383H54.8042V12.8225H52.5234Z" fill="#00AAFF"/>
<path d="M62.5454 10.0642V6.51318H64.8144V12.8185H62.661V11.6239H62.5955C62.4698 12.0101 62.2164 12.3421 61.8771 12.5653C61.5198 12.7808 61.1118 12.8976 60.6946 12.9038C60.2774 12.9101 59.8661 12.8055 59.5025 12.6008C59.173 12.3993 58.907 12.109 58.7349 11.7632C58.5471 11.3829 58.4519 10.9636 58.4572 10.5395V6.51683H60.7235V10.0678C60.7235 10.3792 60.8033 10.6238 60.963 10.8017C61.047 10.8925 61.1501 10.9636 61.2648 11.0099C61.3796 11.0562 61.5032 11.0765 61.6267 11.0694C61.7515 11.0752 61.876 11.0544 61.9921 11.0082C62.1081 10.9621 62.2129 10.8916 62.2996 10.8017C62.4665 10.622 62.5484 10.3762 62.5454 10.0642Z" fill="#00AAFF"/>
<path d="M67.777 9.27596V12.8224H65.5107V6.51711H67.6614V7.71625H67.7287C67.8567 7.32862 68.1139 6.99662 68.4571 6.7757C68.813 6.56025 69.2198 6.44325 69.6357 6.43669C70.0517 6.43013 70.4619 6.53424 70.8244 6.73837C71.1538 6.94111 71.42 7.23188 71.5929 7.57786C71.7796 7.9566 71.8717 8.37491 71.8615 8.79703V12.8197H69.5989V9.27596C69.5989 8.96335 69.5203 8.71842 69.3631 8.54118C69.2779 8.45083 69.1741 8.38015 69.0588 8.33407C68.9436 8.288 68.8196 8.26763 68.6957 8.2744C68.5717 8.26835 68.4478 8.28904 68.3325 8.33507C68.2172 8.3811 68.1131 8.45139 68.0274 8.54118C67.8626 8.71872 67.7797 8.96365 67.777 9.27596Z" fill="#00AAFF"/>
<path d="M74.8123 12.9044C74.3747 12.9075 73.9453 12.7852 73.5749 12.5521C73.1763 12.2901 72.8624 11.9177 72.6717 11.4804C72.4459 11.0015 72.333 10.3981 72.333 9.67032C72.333 8.90913 72.4514 8.29059 72.6881 7.8147C72.9248 7.33881 73.2314 6.98978 73.6077 6.76762C73.965 6.55199 74.374 6.43715 74.7914 6.43528C75.2594 6.43528 75.6412 6.55243 75.9368 6.78674C76.2182 7.00127 76.4354 7.28877 76.565 7.61803H76.5978V4.41577H78.864V12.8225H76.6187V11.7882H76.5696C76.4364 12.1111 76.2125 12.3884 75.9249 12.5867C75.597 12.8076 75.2075 12.9188 74.8123 12.9044ZM75.65 11.1645C75.797 11.1681 75.9425 11.1327 76.0715 11.0621C76.2005 10.9914 76.3086 10.8879 76.3847 10.762C76.562 10.4931 76.6509 10.1289 76.6515 9.66941C76.6521 9.20991 76.5632 8.84388 76.3847 8.57133C76.3073 8.44714 76.1988 8.34533 76.0699 8.27601C75.941 8.2067 75.7963 8.17228 75.65 8.17617C75.5043 8.17145 75.36 8.20567 75.232 8.27529C75.1039 8.34491 74.9968 8.44742 74.9216 8.57225C74.7492 8.83629 74.663 9.20232 74.663 9.67032C74.663 10.1383 74.7492 10.5043 74.9216 10.7684C74.9968 10.8932 75.1039 10.9957 75.232 11.0653C75.36 11.135 75.5043 11.1692 75.65 11.1645Z" fill="#00AAFF"/>
<path d="M79.5342 12.8224V6.51707H81.734V7.71621H81.7995C81.9142 7.2731 82.0963 6.94866 82.3458 6.74288C82.5934 6.53883 82.9055 6.42972 83.2263 6.43513C83.4212 6.43763 83.6147 6.4683 83.8008 6.52618V8.45919C83.6661 8.41633 83.5272 8.38764 83.3865 8.3736C83.2464 8.35592 83.1053 8.34619 82.964 8.34447C82.81 8.33994 82.6567 8.36674 82.5133 8.42324C82.3699 8.47974 82.2396 8.56477 82.13 8.67316C82.018 8.78758 81.9307 8.92381 81.8735 9.0734C81.8163 9.22298 81.7905 9.38272 81.7977 9.5427V12.8269L79.5342 12.8224Z" fill="#00AAFF"/>
<path d="M84.0898 12.8224V6.51707H86.2905V7.71621H86.3561C86.4708 7.2731 86.6529 6.94866 86.9024 6.74288C87.1499 6.53883 87.4621 6.42972 87.7828 6.43513C87.9777 6.43763 88.1713 6.4683 88.3574 6.52618V8.45919C88.2226 8.41633 88.0838 8.38764 87.9431 8.3736C87.8026 8.35592 87.6613 8.34619 87.5197 8.34447C87.3658 8.34001 87.2126 8.36685 87.0694 8.42335C86.9262 8.47985 86.796 8.56483 86.6866 8.67316C86.5746 8.78758 86.4872 8.92381 86.4301 9.0734C86.3729 9.22298 86.3471 9.38272 86.3543 9.5427V12.8269L84.0898 12.8224Z" fill="#00AAFF"/>
</svg>
