<svg width="24" height="24" viewBox="0 0 24 24" fill="none" xmlns="http://www.w3.org/2000/svg">
<path d="M6.8 20V18.1111L7.75 17.1667H4.9C4.3775 17.1667 3.93021 16.9817 3.55813 16.6118C3.18604 16.2419 3 15.7972 3 15.2778V4.88889C3 4.36944 3.18604 3.92477 3.55813 3.55486C3.93021 3.18495 4.3775 3 4.9 3H20.1C20.6225 3 21.0698 3.18495 21.4419 3.55486C21.814 3.92477 22 4.36944 22 4.88889V15.2778C22 15.7972 21.814 16.2419 21.4419 16.6118C21.0698 16.9817 20.6225 17.1667 20.1 17.1667H17.25L18.2 18.1111V20H6.8ZM4.9 15.2778H20.1V4.88889H4.9V15.2778Z" fill="url(#paint0_linear_72_296)"/>
<defs>
<linearGradient id="paint0_linear_72_296" x1="12.5" y1="3" x2="12.5" y2="20" gradientUnits="userSpaceOnUse">
<stop stop-color="#00AAFF"/>
<stop offset="1" stop-color="#007BFF"/>
</linearGradient>
</defs>
</svg>
