<svg width="98" height="25" viewBox="0 0 98 25" fill="none" xmlns="http://www.w3.org/2000/svg">
<g clip-path="url(#clip0_72_1068)">
<path d="M25.7547 8.53027H35.6776V10.3816H31.7759V20.7889H29.6305V10.3816H25.7461V8.53027H25.7547ZM35.2537 11.9129H37.0877V13.6258H37.1223C37.1829 13.3836 37.2954 13.15 37.4597 12.925C37.6241 12.7001 37.8231 12.4838 38.0567 12.3022C38.2902 12.1118 38.5498 11.9648 38.8353 11.8437C39.1207 11.7312 39.4149 11.6706 39.709 11.6706C39.9339 11.6706 40.0983 11.6793 40.1848 11.6879C40.2713 11.6966 40.3579 11.7139 40.453 11.7225V13.6085C40.3146 13.5825 40.1762 13.5652 40.0291 13.5479C39.882 13.5306 39.7436 13.522 39.6052 13.522C39.2765 13.522 38.965 13.5912 38.6709 13.7209C38.3767 13.8507 38.1259 14.0497 37.9096 14.3006C37.6933 14.5601 37.5203 14.8715 37.3905 15.2522C37.2607 15.6328 37.2002 16.0654 37.2002 16.5585V20.7803H35.245V11.9129H35.2537ZM49.4415 20.7889H47.521V19.5518H47.4864C47.2442 20.0017 46.8895 20.3564 46.4136 20.6245C45.9378 20.8927 45.4534 21.0311 44.9603 21.0311C43.7924 21.0311 42.9445 20.7457 42.4255 20.166C41.9064 19.5864 41.6469 18.7126 41.6469 17.5447V11.9129H43.602V17.3544C43.602 18.133 43.7491 18.6867 44.0519 19.0068C44.346 19.3269 44.7699 19.4912 45.3063 19.4912C45.7216 19.4912 46.0589 19.4307 46.3358 19.3009C46.6126 19.1712 46.8375 19.0068 47.0019 18.7905C47.1749 18.5829 47.2961 18.3233 47.3739 18.0292C47.4518 17.7351 47.4864 17.415 47.4864 17.0689V11.9215H49.4415V20.7889ZM52.7722 17.9427C52.8328 18.5137 53.0491 18.9116 53.4211 19.1452C53.8017 19.3701 54.2516 19.4912 54.7793 19.4912C54.961 19.4912 55.1686 19.4739 55.4022 19.448C55.6358 19.422 55.8607 19.3615 56.0597 19.2836C56.2673 19.2058 56.4317 19.0846 56.5701 18.9289C56.6998 18.7732 56.7604 18.5742 56.7517 18.3233C56.7431 18.0725 56.6479 17.8648 56.4749 17.7091C56.3019 17.5447 56.0856 17.4236 55.8174 17.3198C55.5492 17.2247 55.2464 17.1381 54.9004 17.0689C54.5544 16.9997 54.2083 16.9219 53.8536 16.844C53.4903 16.7661 53.1356 16.6623 52.7982 16.5499C52.4608 16.4374 52.158 16.2817 51.8898 16.0827C51.6216 15.8924 51.4053 15.6415 51.2496 15.3387C51.0853 15.0359 51.0074 14.6639 51.0074 14.2141C51.0074 13.7296 51.1285 13.3316 51.3621 13.0029C51.5957 12.6742 51.8985 12.4146 52.2532 12.2157C52.6165 12.0167 53.0145 11.8783 53.4557 11.7917C53.8969 11.7139 54.3208 11.6706 54.7187 11.6706C55.1772 11.6706 55.6184 11.7225 56.0337 11.8177C56.449 11.9129 56.8296 12.0686 57.167 12.2935C57.5044 12.5098 57.7812 12.7953 58.0062 13.1413C58.2311 13.4874 58.3695 13.9113 58.4301 14.4044H56.3884C56.2932 13.9372 56.0856 13.6171 55.7482 13.4614C55.4108 13.297 55.0215 13.2192 54.589 13.2192C54.4505 13.2192 54.2862 13.2278 54.0958 13.2538C53.9055 13.2797 53.7325 13.323 53.5595 13.3836C53.3951 13.4441 53.2567 13.5393 53.1356 13.6604C53.0231 13.7815 52.9626 13.9372 52.9626 14.1362C52.9626 14.3784 53.0491 14.5688 53.2134 14.7158C53.3778 14.8629 53.5941 14.984 53.8623 15.0878C54.1305 15.183 54.4332 15.2695 54.7793 15.3387C55.1253 15.4079 55.48 15.4858 55.8434 15.5636C56.1981 15.6415 56.5441 15.7453 56.8902 15.8578C57.2362 15.9702 57.539 16.126 57.8072 16.3249C58.0754 16.5239 58.2916 16.7661 58.456 17.0603C58.6204 17.3544 58.7069 17.7264 58.7069 18.159C58.7069 18.6867 58.5858 19.1279 58.3436 19.4999C58.1013 19.8632 57.7899 20.166 57.4092 20.391C57.0286 20.6159 56.596 20.7889 56.1289 20.8927C55.6617 20.9965 55.1945 21.0485 54.736 21.0485C54.1737 21.0485 53.6546 20.9879 53.1788 20.8581C52.703 20.7284 52.2878 20.538 51.9417 20.2872C51.5957 20.0276 51.3188 19.7075 51.1199 19.3269C50.9209 18.9462 50.8171 18.4877 50.7998 17.96H52.7722V17.9427ZM59.226 11.9129H60.7053V9.24832H62.6605V11.9129H64.4253V13.3749H62.6605V18.1157C62.6605 18.3233 62.6691 18.4964 62.6864 18.6521C62.7037 18.7992 62.747 18.9289 62.8075 19.0327C62.8681 19.1366 62.9633 19.2144 63.093 19.2663C63.2228 19.3182 63.3872 19.3442 63.6121 19.3442C63.7505 19.3442 63.8889 19.3442 64.0273 19.3355C64.1658 19.3269 64.3042 19.3096 64.4426 19.275V20.7889C64.2263 20.8149 64.01 20.8322 63.8111 20.8581C63.6034 20.8841 63.3958 20.8927 63.1795 20.8927C62.6605 20.8927 62.2452 20.8408 61.9338 20.7457C61.6223 20.6505 61.3715 20.5034 61.1984 20.3131C61.0168 20.1228 60.9043 19.8892 60.8351 19.6037C60.7745 19.3182 60.7313 18.9895 60.7226 18.6261V13.3922H59.2433V11.9129H59.226ZM65.8095 11.9129H67.6608V13.1154H67.6954C67.9723 12.5963 68.3529 12.233 68.846 12.008C69.3391 11.7831 69.8669 11.6706 70.4465 11.6706C71.1472 11.6706 71.7528 11.7917 72.2719 12.0426C72.7909 12.2849 73.2235 12.6223 73.5695 13.0548C73.9156 13.4874 74.1665 13.9891 74.3395 14.5601C74.5125 15.1311 74.599 15.7453 74.599 16.3941C74.599 16.9911 74.5212 17.5707 74.3654 18.1244C74.2097 18.6867 73.9762 19.1798 73.6647 19.6124C73.3533 20.0449 72.9553 20.3823 72.4708 20.6418C71.9864 20.9014 71.4241 21.0311 70.7666 21.0311C70.4811 21.0311 70.1956 21.0052 69.9101 20.9533C69.6246 20.9014 69.3478 20.8149 69.0883 20.7024C68.8287 20.5899 68.5778 20.4429 68.3616 20.2612C68.1366 20.0795 67.955 19.8719 67.7992 19.6383H67.7646V24.0677H65.8095V11.9129ZM72.6439 16.3595C72.6439 15.9616 72.592 15.5723 72.4882 15.1916C72.3843 14.811 72.2286 14.4822 72.021 14.1881C71.8134 13.894 71.5538 13.6604 71.251 13.4874C70.9396 13.3143 70.5849 13.2192 70.1869 13.2192C69.3651 13.2192 68.7422 13.5047 68.327 14.0756C67.9117 14.6466 67.7041 15.4079 67.7041 16.3595C67.7041 16.8094 67.756 17.2247 67.8685 17.6053C67.9809 17.986 68.1366 18.3147 68.3616 18.5915C68.5778 18.8684 68.8374 19.0846 69.1402 19.2404C69.443 19.4047 69.7977 19.4826 70.1956 19.4826C70.6455 19.4826 71.0175 19.3874 71.3289 19.2058C71.6403 19.0241 71.8912 18.7819 72.0902 18.4964C72.2892 18.2022 72.4362 17.8735 72.5228 17.5015C72.6006 17.1295 72.6439 16.7488 72.6439 16.3595ZM76.0957 8.53027H78.0508V10.3816H76.0957V8.53027ZM76.0957 11.9129H78.0508V20.7889H76.0957V11.9129ZM79.7984 8.53027H81.7535V20.7889H79.7984V8.53027ZM87.7487 21.0311C87.0393 21.0311 86.4078 20.91 85.8542 20.6765C85.3005 20.4429 84.8333 20.1141 84.444 19.7075C84.0634 19.2923 83.7692 18.7992 83.5703 18.2282C83.3713 17.6572 83.2675 17.0257 83.2675 16.3422C83.2675 15.6675 83.3713 15.0446 83.5703 14.4736C83.7692 13.9026 84.0634 13.4095 84.444 12.9943C84.8247 12.579 85.3005 12.2589 85.8542 12.0253C86.4078 11.7917 87.0393 11.6706 87.7487 11.6706C88.4581 11.6706 89.0897 11.7917 89.6433 12.0253C90.197 12.2589 90.6642 12.5877 91.0535 12.9943C91.4341 13.4095 91.7283 13.9026 91.9272 14.4736C92.1262 15.0446 92.23 15.6675 92.23 16.3422C92.23 17.0257 92.1262 17.6572 91.9272 18.2282C91.7283 18.7992 91.4341 19.2923 91.0535 19.7075C90.6728 20.1228 90.197 20.4429 89.6433 20.6765C89.0897 20.91 88.4581 21.0311 87.7487 21.0311ZM87.7487 19.4826C88.1813 19.4826 88.562 19.3874 88.882 19.2058C89.2021 19.0241 89.4617 18.7819 89.6693 18.4877C89.8769 18.1936 90.024 17.8562 90.1278 17.4842C90.223 17.1122 90.2749 16.7315 90.2749 16.3422C90.2749 15.9616 90.223 15.5896 90.1278 15.2089C90.0327 14.8283 89.8769 14.4995 89.6693 14.2054C89.4617 13.9113 89.2021 13.6777 88.882 13.496C88.562 13.3143 88.1813 13.2192 87.7487 13.2192C87.3162 13.2192 86.9355 13.3143 86.6154 13.496C86.2954 13.6777 86.0358 13.9199 85.8282 14.2054C85.6206 14.4995 85.4735 14.8283 85.3697 15.2089C85.2745 15.5896 85.2226 15.9616 85.2226 16.3422C85.2226 16.7315 85.2745 17.1122 85.3697 17.4842C85.4648 17.8562 85.6206 18.1936 85.8282 18.4877C86.0358 18.7819 86.2954 19.0241 86.6154 19.2058C86.9355 19.3961 87.3162 19.4826 87.7487 19.4826ZM92.801 11.9129H94.2804V9.24832H96.2355V11.9129H98.0003V13.3749H96.2355V18.1157C96.2355 18.3233 96.2442 18.4964 96.2615 18.6521C96.2788 18.7992 96.322 18.9289 96.3826 19.0327C96.4431 19.1366 96.5383 19.2144 96.6681 19.2663C96.7978 19.3182 96.9622 19.3442 97.1871 19.3442C97.3256 19.3442 97.464 19.3442 97.6024 19.3355C97.7408 19.3269 97.8792 19.3096 98.0176 19.275V20.7889C97.8014 20.8149 97.5851 20.8322 97.3861 20.8581C97.1785 20.8841 96.9709 20.8927 96.7546 20.8927C96.2355 20.8927 95.8203 20.8408 95.5088 20.7457C95.1974 20.6505 94.9465 20.5034 94.7735 20.3131C94.5918 20.1228 94.4793 19.8892 94.4101 19.6037C94.3496 19.3182 94.3063 18.9895 94.2977 18.6261V13.3922H92.8183V11.9129H92.801Z" fill="white"/>
<path d="M23.4705 8.53001H14.5079L11.7396 0L8.96257 8.53001L0 8.52136L7.2583 13.7985L4.48129 22.3199L11.7396 17.0514L18.9892 22.3199L16.2209 13.7985L23.4705 8.53001Z" fill="#00B67A"/>
<path d="M16.8434 15.728L16.2205 13.7988L11.7393 17.0517L16.8434 15.728Z" fill="#005128"/>
</g>
<defs>
<clipPath id="clip0_72_1068">
<rect width="98" height="24.0674" fill="white"/>
</clipPath>
</defs>
</svg>
