<svg width="30" height="30" viewBox="0 0 30 30" fill="none" xmlns="http://www.w3.org/2000/svg">
<path d="M0 30C0 27.225 0.36875 24.8562 1.10625 22.8937C1.84375 20.9312 2.7875 19.3 3.9375 18C5.0875 16.7 6.375 15.6937 7.8 14.9812C9.225 14.2687 10.625 13.775 12 13.5V9C8.575 8.575 5.71875 7.51875 3.43125 5.83125C1.14375 4.14375 0 2.2 0 0H30C30 2.2 28.8562 4.14375 26.5687 5.83125C24.2812 7.51875 21.425 8.575 18 9V13.5C19.375 13.775 20.775 14.2687 22.2 14.9812C23.625 15.6937 24.9125 16.7 26.0625 18C27.2125 19.3 28.1562 20.9312 28.8937 22.8937C29.6312 24.8562 30 27.225 30 30H21V27H26.8125C26.3625 23.2 24.9438 20.45 22.5563 18.75C20.1688 17.05 17.65 16.2 15 16.2C12.35 16.2 9.83125 17.05 7.44375 18.75C5.05625 20.45 3.6375 23.2 3.1875 27H9V30H0ZM15 30C14.175 30 13.4687 29.7062 12.8812 29.1187C12.2937 28.5312 12 27.825 12 27C12 26.575 12.0812 26.1875 12.2437 25.8375C12.4062 25.4875 12.625 25.175 12.9 24.9C13.5 24.3 14.5125 23.6687 15.9375 23.0062C17.3625 22.3437 19.05 21.675 21 21C20.3 22.95 19.625 24.6375 18.975 26.0625C18.325 27.4875 17.7 28.5 17.1 29.1C16.825 29.375 16.5125 29.5937 16.1625 29.7562C15.8125 29.9187 15.425 30 15 30Z" fill="url(#paint0_linear_79_1947)"/>
<defs>
<linearGradient id="paint0_linear_79_1947" x1="15" y1="0" x2="15" y2="30" gradientUnits="userSpaceOnUse">
<stop stop-color="#00AAFF"/>
<stop offset="1" stop-color="#007BFF"/>
</linearGradient>
</defs>
</svg>
