<svg width="27" height="30" viewBox="0 0 27 30" fill="none" xmlns="http://www.w3.org/2000/svg">
<path d="M0 30V4.68983H9.375C9.25 5.16129 9.15625 5.62655 9.09375 6.08561C9.03125 6.54466 9 6.99752 9 7.44417C9 10.4466 10.05 12.9342 12.15 14.9069C14.25 16.8797 16.7 17.866 19.5 17.866C20 17.866 20.5 17.8288 21 17.7543C21.5 17.6799 22 17.5682 22.5 17.4194V22.5558H12L11.4 19.5782H3V30H0ZM24.8063 2.17742C26.2688 3.62903 27 5.38462 27 7.44417C27 9.50372 26.2688 11.2593 24.8063 12.7109C23.3438 14.1625 21.575 14.8883 19.5 14.8883C17.425 14.8883 15.6563 14.1625 14.1938 12.7109C12.7313 11.2593 12 9.50372 12 7.44417C12 5.38462 12.7313 3.62903 14.1938 2.17742C15.6563 0.725806 17.425 0 19.5 0C21.575 0 23.3438 0.725806 24.8063 2.17742ZM18.4125 10.794L23.625 5.65757L22.05 4.09429L18.4125 7.63027L16.95 6.17866L15.375 7.77916L18.4125 10.794Z" fill="url(#paint0_linear_79_691)"/>
<defs>
<linearGradient id="paint0_linear_79_691" x1="13.5" y1="0" x2="13.5" y2="30" gradientUnits="userSpaceOnUse">
<stop stop-color="#05C4A1"/>
<stop offset="1" stop-color="#027CC4"/>
</linearGradient>
</defs>
</svg>
