<svg width="19" height="18" viewBox="0 0 19 18" fill="none" xmlns="http://www.w3.org/2000/svg">
<path d="M5.22327 6.47949H11.7182V8.21908H9.33639V12.9734H7.3854V8.21908L5.22327 8.21055V6.47949Z" fill="white" fill-opacity="0.1"/>
<path d="M11.723 1.35254H0V18.0008H16.6551V6.4374H14.2567V15.6139H2.38735V3.72417H11.723V1.35254Z" fill="white" fill-opacity="0.1"/>
<path d="M12.7394 0V5.4286H18.1689V0H12.7394ZM15.497 4.49931C15.0082 4.49931 14.3215 4.30398 14.1402 3.59987L14.879 3.40455C15.0257 3.97645 15.9799 3.96494 15.9483 3.36147C15.9483 3.12009 15.7184 2.91624 15.0457 2.94779V2.37291C15.7039 2.40447 15.8792 2.21468 15.8707 1.93875C15.8536 1.49607 15.0858 1.44148 14.9826 1.96733L14.2409 1.79205C14.3914 1.2871 14.8542 0.935259 15.5047 0.935259C16.1552 0.935259 16.6883 1.37026 16.6883 1.9008C16.6883 2.43133 16.6124 2.48635 16.1193 2.62495V2.645C16.3369 2.67485 16.7673 2.93201 16.7673 3.43909C16.7673 3.94617 16.3765 4.48524 15.497 4.49974V4.49931Z" fill="white" fill-opacity="0.1"/>
</svg>
