<svg width="61" height="60" viewBox="0 0 61 60" fill="none" xmlns="http://www.w3.org/2000/svg">
<path d="M17.4117 21.6006H39.0588V27.3991H31.1204V43.2465H24.6179V27.3991L17.4117 27.3707V21.6006Z" fill="white"/>
<path d="M39.0719 4.50684H0V59.9999H55.5101V21.456H47.5163V52.0435H7.95682V12.4121H39.0719V4.50684Z" fill="#00AC5F"/>
<path d="M42.4631 0V18.0949H60.559V0H42.4631ZM51.6539 14.9974C50.0247 14.9974 47.7359 14.3463 47.1317 11.9993L49.594 11.3482C50.083 13.2545 53.2632 13.2161 53.158 11.2047C53.158 10.4001 52.3917 9.72056 50.1498 9.82575V7.9095C52.3434 8.0147 52.9277 7.38211 52.8993 6.46237C52.8424 4.9868 50.2835 4.80484 49.9394 6.55761L47.4672 5.97335C47.9691 4.29024 49.5115 3.11746 51.6795 3.11746C53.8475 3.11746 55.6245 4.56744 55.6245 6.33585C55.6245 8.10426 55.3715 8.28764 53.7281 8.74964V8.81645C54.4531 8.91596 55.8875 9.77316 55.8875 11.4634C55.8875 13.1536 54.5853 14.9504 51.6539 14.9988V14.9974Z" fill="white"/>
</svg>
