<svg width="197" height="40" viewBox="0 0 197 40" fill="none" xmlns="http://www.w3.org/2000/svg">
<path d="M39.5317 6.18591L10.7416 16.5677C10.0346 16.773 9.41304 17.2017 8.96992 17.7896C8.52679 18.3775 8.28588 19.0931 8.2832 19.8293V36.0808C8.2832 38.7112 10.8751 40.5929 13.4407 39.828L42.2309 29.4463C42.9375 29.2405 43.5586 28.8117 44.0013 28.2238C44.444 27.6359 44.6846 26.9206 44.6872 26.1846V9.93314C44.6872 7.3028 42.0993 5.42109 39.5317 6.18591ZM26.2566 30.6056C22.3798 30.6056 19.2376 27.5261 19.2376 23.7263C19.2376 19.9264 22.3798 16.8469 26.2566 16.8469C30.1333 16.8469 33.2755 19.9285 33.2755 23.7263C33.2755 27.5241 30.1333 30.6056 26.2566 30.6056Z" fill="#F6FF00"/>
<path d="M33.9456 23.4229L5.15548 33.8047C2.58988 34.5695 0 32.6858 0 30.0574V13.8059C0.00441891 13.0711 0.246134 12.3574 0.68913 11.7711C1.13213 11.1848 1.75269 10.7574 2.45836 10.5524L31.2465 0.17266C33.8141 -0.594187 36.406 1.28955 36.406 3.91989V20.1694C36.4008 20.9043 36.1586 21.6179 35.7153 22.2041C35.272 22.7903 34.6513 23.2177 33.9456 23.4229Z" fill="white"/>
<path d="M50.084 12.6487V9.81604H64.9879V12.6487H59.2153V28.4935H55.8566V12.6487H50.084Z" fill="white"/>
<path d="M65.2461 28.4935V14.4819H68.449V16.8188H68.5947C68.8086 16.0614 69.2729 15.3987 69.9119 14.9392C70.5376 14.4999 71.2862 14.2697 72.0506 14.2816C72.2347 14.2816 72.4391 14.2816 72.6576 14.3038C72.8483 14.3152 73.0382 14.3382 73.2262 14.3726V17.4076C73.0108 17.3432 72.79 17.2985 72.5665 17.2741C72.2774 17.2362 71.9861 17.2166 71.6945 17.2154C71.2806 17.2019 70.8681 17.2702 70.4806 17.4164C70.0931 17.5625 69.7383 17.7837 69.4364 18.0672C69.1409 18.3474 68.908 18.687 68.7531 19.0636C68.5983 19.4403 68.525 19.8454 68.5381 20.2525V28.4895L65.2461 28.4935Z" fill="white"/>
<path d="M78.1998 28.7772C76.8617 28.7772 75.7455 28.4184 74.8512 27.7008C73.9569 26.9832 73.5104 25.9371 73.5117 24.5626C73.5117 23.5104 73.7653 22.6943 74.2725 22.1143C74.8032 21.5169 75.4877 21.0767 76.2513 20.8416C77.0893 20.5716 77.9533 20.3898 78.8291 20.2994C80.0633 20.1645 80.9495 20.0397 81.4877 19.9251C82.026 19.8104 82.2957 19.5157 82.2971 19.0409V18.9842C82.2971 18.2976 82.0947 17.7662 81.6901 17.3898C81.2854 17.0135 80.6986 16.8246 79.9298 16.8233C79.1204 16.8233 78.4804 17 78.0096 17.3534C77.5706 17.6662 77.2391 18.1073 77.0607 18.616L73.9771 18.1789C74.2831 16.9721 75.0464 15.9316 76.1056 15.2774C77.1686 14.6259 78.4352 14.3002 79.9055 14.3002C80.5828 14.3008 81.2577 14.3802 81.9167 14.5369C82.57 14.6901 83.1916 14.9557 83.7539 15.322C84.3173 15.6946 84.7785 16.2024 85.0954 16.799C85.4552 17.5175 85.6291 18.3147 85.6012 19.1178V28.4939H82.4225V26.5697H82.3214C81.9814 27.2044 81.4795 27.7378 80.8666 28.1156C80.1894 28.5566 79.3005 28.7772 78.1998 28.7772ZM79.0577 26.3492C80.0532 26.3492 80.8436 26.0632 81.4291 25.4913C81.7066 25.2327 81.9276 24.9194 82.078 24.5712C82.2285 24.2229 82.3051 23.8473 82.3032 23.4679V21.8169C82.0712 21.9716 81.8092 22.0757 81.5343 22.1224C81.16 22.2114 80.7634 22.2843 80.3425 22.347L79.2762 22.5008C78.6268 22.5749 77.9994 22.7815 77.433 23.1078C77.1936 23.2513 76.9981 23.4577 76.8679 23.7046C76.7377 23.9515 76.6777 24.2293 76.6944 24.5079C76.679 24.7753 76.7321 25.0421 76.8486 25.2832C76.9651 25.5243 77.1411 25.7317 77.3601 25.8858C77.8641 26.2131 78.4573 26.3757 79.0577 26.3512V26.3492Z" fill="white"/>
<path d="M93.1242 28.732C92.0768 28.747 91.0484 28.4521 90.1681 27.8843C89.2618 27.2741 88.5469 26.4197 88.1063 25.4198C87.6032 24.3407 87.351 23.0336 87.3496 21.4986C87.3496 19.9406 87.6066 18.6268 88.1205 17.5571C88.5698 16.5658 89.2928 15.7235 90.2045 15.1291C91.0804 14.5749 92.0979 14.2861 93.1343 14.2975C93.8314 14.269 94.5252 14.4077 95.1577 14.7022C95.6401 14.9457 96.0682 15.2843 96.4162 15.6977C96.6972 16.0351 96.9395 16.4029 97.1385 16.7943H97.2741V9.81177H100.586V28.4933H97.349V26.2858H97.1466C96.9435 26.6741 96.6949 27.0368 96.4061 27.3663C96.0505 27.773 95.6162 28.1034 95.1294 28.3375C94.5014 28.6253 93.8144 28.7605 93.1242 28.732ZM94.0449 26.0228C94.5234 26.0407 94.9984 25.9346 95.4238 25.7148C95.8492 25.495 96.2106 25.1689 96.4729 24.7683C97.0434 23.9334 97.3294 22.8374 97.3308 21.4804C97.3321 20.1234 97.0502 19.0389 96.485 18.2269C95.9185 17.4175 95.1031 17.0128 94.0388 17.0128C92.9381 17.0128 92.1085 17.4324 91.5501 18.2714C90.9916 19.1104 90.7117 20.1841 90.7104 21.4925C90.7104 22.8064 90.993 23.8915 91.5582 24.7481C92.1233 25.6046 92.9522 26.0322 94.0449 26.0309V26.0228Z" fill="white"/>
<path d="M109.317 28.7667C107.913 28.7667 106.699 28.4719 105.675 27.8825C104.663 27.2993 103.846 26.4299 103.326 25.3836C102.755 24.1951 102.474 22.8879 102.506 21.5696C102.478 20.257 102.759 18.956 103.326 17.7718C103.841 16.7172 104.645 15.8309 105.645 15.2163C106.702 14.5886 107.914 14.271 109.143 14.2998C110.249 14.2898 111.341 14.5452 112.328 15.0444C113.321 15.5611 114.136 16.3648 114.667 17.351C115.254 18.395 115.547 19.7378 115.547 21.3794V22.3911H105.792C105.81 23.5889 106.143 24.5224 106.792 25.1914C107.441 25.8605 108.299 26.1977 109.368 26.2031C110.014 26.2198 110.652 26.0604 111.215 25.7418C111.733 25.4375 112.129 24.9615 112.334 24.3962L115.415 24.7443C115.134 25.9443 114.406 26.9917 113.378 27.672C112.306 28.4031 110.952 28.768 109.317 28.7667ZM105.792 20.1654H112.378C112.403 19.2934 112.085 18.4465 111.492 17.8062C111.195 17.4979 110.837 17.2557 110.44 17.0956C110.043 16.9356 109.617 16.8612 109.19 16.8775C108.743 16.8606 108.299 16.9388 107.885 17.1069C107.471 17.2751 107.098 17.5293 106.79 17.8528C106.186 18.4759 105.831 19.2986 105.792 20.1654Z" fill="white"/>
<path d="M116.719 28.4934V9.81189H129.85V13.899H121.787V17.1101H129.049V21.1952H121.787V28.4934H116.719Z" fill="#F6FF00"/>
<path d="M138.992 22.3644V14.4734H144.034V28.485H139.248V25.8304H139.103C138.823 26.6887 138.26 27.4265 137.506 27.9225C136.712 28.4013 135.806 28.6609 134.879 28.6747C133.952 28.6886 133.037 28.4563 132.23 28.0015C131.497 27.5535 130.906 26.9084 130.524 26.14C130.106 25.295 129.895 24.3631 129.907 23.4206V14.4815H134.943V22.3725C134.943 23.0645 135.12 23.6081 135.475 24.0033C135.662 24.2052 135.891 24.3632 136.146 24.466C136.401 24.5689 136.675 24.614 136.95 24.5982C137.227 24.6113 137.504 24.5649 137.762 24.4623C138.02 24.3597 138.253 24.2033 138.445 24.0033C138.816 23.6041 138.998 23.0578 138.992 22.3644Z" fill="#F6FF00"/>
<path d="M150.614 20.6125V28.4934H145.578V14.4817H150.357V17.1465H150.507C150.791 16.2851 151.363 15.5473 152.126 15.0564C152.917 14.5776 153.82 14.3176 154.745 14.303C155.669 14.2884 156.581 14.5198 157.386 14.9734C158.118 15.4239 158.71 16.0701 159.094 16.8389C159.509 17.6806 159.714 18.6101 159.691 19.5482V28.4873H154.663V20.6125C154.663 19.9178 154.488 19.3735 154.139 18.9796C153.95 18.7789 153.719 18.6218 153.463 18.5194C153.207 18.417 152.931 18.3717 152.656 18.3868C152.38 18.3733 152.105 18.4193 151.849 18.5216C151.592 18.6239 151.361 18.7801 151.171 18.9796C150.804 19.3742 150.62 19.9185 150.614 20.6125Z" fill="#F6FF00"/>
<path d="M166.25 28.6755C165.277 28.6823 164.323 28.4106 163.5 27.8925C162.614 27.3102 161.917 26.4828 161.493 25.511C160.991 24.4467 160.74 23.1059 160.74 21.4886C160.74 19.7971 161.003 18.4226 161.529 17.365C162.055 16.3075 162.737 15.5319 163.573 15.0382C164.367 14.559 165.276 14.3038 166.203 14.2997C167.243 14.2997 168.092 14.56 168.749 15.0807C169.374 15.5574 169.857 16.1963 170.145 16.928H170.218V9.81189H175.254V28.4934H170.264V26.1949H170.155C169.859 26.9124 169.361 27.5288 168.722 27.9694C167.994 28.4602 167.128 28.7074 166.25 28.6755ZM168.111 24.8089C168.438 24.8169 168.761 24.7384 169.048 24.5814C169.335 24.4243 169.575 24.1943 169.744 23.9146C170.138 23.317 170.336 22.5077 170.337 21.4866C170.338 20.4655 170.141 19.6521 169.744 19.0464C169.572 18.7704 169.331 18.5442 169.044 18.3902C168.758 18.2361 168.436 18.1596 168.111 18.1683C167.788 18.1578 167.467 18.2338 167.182 18.3885C166.898 18.5433 166.66 18.7711 166.493 19.0484C166.11 19.6352 165.918 20.4486 165.918 21.4886C165.918 22.5286 166.11 23.342 166.493 23.9288C166.66 24.2062 166.898 24.4339 167.182 24.5887C167.467 24.7434 167.788 24.8194 168.111 24.8089Z" fill="#F6FF00"/>
<path d="M176.742 28.4936V14.482H181.631V17.1467H181.776C182.031 16.162 182.436 15.441 182.99 14.9838C183.54 14.5303 184.234 14.2878 184.947 14.2999C185.38 14.3054 185.81 14.3736 186.224 14.5022V18.7978C185.924 18.7025 185.616 18.6388 185.303 18.6076C184.991 18.5683 184.678 18.5467 184.364 18.5428C184.022 18.5328 183.681 18.5923 183.362 18.7179C183.044 18.8434 182.754 19.0324 182.511 19.2732C182.262 19.5275 182.068 19.8302 181.941 20.1627C181.814 20.4951 181.756 20.85 181.772 21.2055V28.5037L176.742 28.4936Z" fill="#F6FF00"/>
<path d="M186.867 28.4936V14.482H191.758V17.1467H191.903C192.158 16.162 192.563 15.441 193.117 14.9838C193.667 14.5303 194.361 14.2878 195.074 14.2999C195.507 14.3054 195.937 14.3736 196.351 14.5022V18.7978C196.051 18.7025 195.743 18.6388 195.43 18.6076C195.118 18.5683 194.804 18.5466 194.489 18.5428C194.147 18.5329 193.807 18.5926 193.489 18.7181C193.17 18.8437 192.881 19.0325 192.638 19.2732C192.389 19.5275 192.195 19.8302 192.068 20.1627C191.941 20.4951 191.883 20.85 191.899 21.2055V28.5037L186.867 28.4936Z" fill="#F6FF00"/>
</svg>
