<svg width="24" height="24" viewBox="0 0 24 24" fill="none" xmlns="http://www.w3.org/2000/svg">
<path d="M6.41202 9.56908L8.2602 10.3501C8.48135 9.9083 8.7104 9.4823 8.94735 9.07208C9.18429 8.66186 9.44494 8.25165 9.72927 7.84143L8.40237 7.5811L6.41202 9.56908ZM9.77666 11.5334L12.4778 14.2077C13.1413 13.9553 13.8521 13.5687 14.6104 13.0481C15.3686 12.5274 16.0794 11.9357 16.7429 11.2731C17.8486 10.1686 18.7135 8.94192 19.3374 7.59293C19.9614 6.24394 20.2339 5.00145 20.1549 3.86545C19.0176 3.78657 17.7696 4.05873 16.4112 4.68195C15.0527 5.30517 13.8205 6.16899 12.7148 7.27343C12.0513 7.93609 11.459 8.64609 10.9377 9.40342C10.4164 10.1607 10.0294 10.8707 9.77666 11.5334ZM13.4493 8.65792C13.4493 8.12937 13.631 7.68365 13.9943 7.32076C14.3576 6.95788 14.8078 6.77643 15.3449 6.77643C15.882 6.77643 16.3322 6.95788 16.6955 7.32076C17.0588 7.68365 17.2405 8.12937 17.2405 8.65792C17.2405 9.18647 17.0588 9.63219 16.6955 9.99508C16.3322 10.358 15.882 10.5394 15.3449 10.5394C14.8078 10.5394 14.3576 10.358 13.9943 9.99508C13.631 9.63219 13.4493 9.18647 13.4493 8.65792ZM14.4445 17.592L16.4348 15.604L16.1742 14.2787C15.7635 14.5627 15.3528 14.8191 14.9421 15.0479C14.5314 15.2767 14.1049 15.5015 13.6626 15.7224L14.4445 17.592ZM21.8609 2.1378C22.161 4.0469 21.9754 5.90472 21.3041 7.71126C20.6327 9.5178 19.4757 11.2415 17.8328 12.8824L18.3067 15.2254C18.3699 15.5409 18.3541 15.8486 18.2593 16.1484C18.1646 16.4481 18.0066 16.7085 17.7854 16.9294L13.8047 20.9053L11.8144 16.243L7.76262 12.1961L3.09478 10.2081L7.05178 6.2321C7.27293 6.01122 7.53752 5.85344 7.84555 5.75877C8.15358 5.66411 8.46556 5.64833 8.78149 5.71144L11.1273 6.18477C12.7701 4.54389 14.4919 3.38424 16.2927 2.7058C18.0935 2.02736 19.9495 1.83802 21.8609 2.1378ZM4.7771 15.2017C5.32997 14.6495 6.00527 14.3694 6.80299 14.3615C7.6007 14.3537 8.276 14.6258 8.82888 15.178C9.38175 15.7303 9.65424 16.4048 9.64634 17.2015C9.63844 17.9983 9.35806 18.6728 8.80518 19.225C8.41027 19.6195 7.75077 19.9587 6.82668 20.2427C5.90259 20.5267 4.62703 20.7791 3 21C3.22115 19.3749 3.47389 18.1009 3.75823 17.1779C4.04256 16.2549 4.38219 15.5961 4.7771 15.2017ZM6.12769 16.527C5.96973 16.6848 5.81176 16.9728 5.6538 17.3909C5.49583 17.809 5.38526 18.231 5.32207 18.657C5.74858 18.5939 6.17113 18.4874 6.58973 18.3375C7.00834 18.1876 7.29662 18.0338 7.45459 17.876C7.64414 17.6867 7.74682 17.4579 7.76262 17.1897C7.77841 16.9215 7.69153 16.6927 7.50198 16.5034C7.31242 16.314 7.08337 16.2233 6.81483 16.2312C6.54629 16.2391 6.31725 16.3377 6.12769 16.527Z" fill="url(#paint0_linear_60_5165)"/>
<defs>
<linearGradient id="paint0_linear_60_5165" x1="12.5" y1="2" x2="12.5" y2="21" gradientUnits="userSpaceOnUse">
<stop stop-color="#05C4A1"/>
<stop offset="1" stop-color="#027CC4"/>
</linearGradient>
</defs>
</svg>
