<svg width="24" height="24" viewBox="0 0 24 24" fill="none" xmlns="http://www.w3.org/2000/svg">
<path d="M10.9459 15.87L17.6434 9.1725L16.3134 7.8425L10.9459 13.21L8.23838 10.5025L6.90838 11.8325L10.9459 15.87ZM12.2759 21C10.9617 21 9.72671 20.7506 8.57088 20.2519C7.41505 19.7531 6.40963 19.0763 5.55463 18.2213C4.69963 17.3663 4.02275 16.3608 3.524 15.205C3.02525 14.0492 2.77588 12.8142 2.77588 11.5C2.77588 10.1858 3.02525 8.95083 3.524 7.795C4.02275 6.63917 4.69963 5.63375 5.55463 4.77875C6.40963 3.92375 7.41505 3.24687 8.57088 2.74813C9.72671 2.24938 10.9617 2 12.2759 2C13.59 2 14.825 2.24938 15.9809 2.74813C17.1367 3.24687 18.1421 3.92375 18.9971 4.77875C19.8521 5.63375 20.529 6.63917 21.0278 7.795C21.5265 8.95083 21.7759 10.1858 21.7759 11.5C21.7759 12.8142 21.5265 14.0492 21.0278 15.205C20.529 16.3608 19.8521 17.3663 18.9971 18.2213C18.1421 19.0763 17.1367 19.7531 15.9809 20.2519C14.825 20.7506 13.59 21 12.2759 21ZM12.2759 19.1C14.3975 19.1 16.1946 18.3638 17.6671 16.8912C19.1396 15.4187 19.8759 13.6217 19.8759 11.5C19.8759 9.37833 19.1396 7.58125 17.6671 6.10875C16.1946 4.63625 14.3975 3.9 12.2759 3.9C10.1542 3.9 8.35713 4.63625 6.88463 6.10875C5.41213 7.58125 4.67588 9.37833 4.67588 11.5C4.67588 13.6217 5.41213 15.4187 6.88463 16.8912C8.35713 18.3638 10.1542 19.1 12.2759 19.1Z" fill="url(#paint0_linear_60_5185)"/>
<defs>
<linearGradient id="paint0_linear_60_5185" x1="12.2759" y1="2" x2="12.2759" y2="21" gradientUnits="userSpaceOnUse">
<stop stop-color="#05C4A1"/>
<stop offset="1" stop-color="#027CC4"/>
</linearGradient>
</defs>
</svg>
