<svg width="22" height="25" viewBox="0 0 22 25" fill="none" xmlns="http://www.w3.org/2000/svg">
<path d="M0 25V3.90819H7.63889C7.53704 4.30108 7.46065 4.68879 7.40972 5.07134C7.3588 5.45389 7.33333 5.83127 7.33333 6.20347C7.33333 8.70554 8.18889 10.7785 9.9 12.4225C11.6111 14.0664 13.6074 14.8883 15.8889 14.8883C16.2963 14.8883 16.7037 14.8573 17.1111 14.7953C17.5185 14.7333 17.9259 14.6402 18.3333 14.5161V18.7965H9.77778L9.28889 16.3151H2.44444V25H0ZM20.2125 1.81452C21.4042 3.02419 22 4.48718 22 6.20347C22 7.91977 21.4042 9.38275 20.2125 10.5924C19.0208 11.8021 17.5796 12.4069 15.8889 12.4069C14.1981 12.4069 12.7569 11.8021 11.5653 10.5924C10.3736 9.38275 9.77778 7.91977 9.77778 6.20347C9.77778 4.48718 10.3736 3.02419 11.5653 1.81452C12.7569 0.604839 14.1981 0 15.8889 0C17.5796 0 19.0208 0.604839 20.2125 1.81452ZM15.0028 8.99504L19.25 4.71464L17.9667 3.41191L15.0028 6.35856L13.8111 5.14888L12.5278 6.48263L15.0028 8.99504Z" fill="url(#paint0_linear_57_436)"/>
<defs>
<linearGradient id="paint0_linear_57_436" x1="11" y1="0" x2="11" y2="25" gradientUnits="userSpaceOnUse">
<stop stop-color="#05C4A1"/>
<stop offset="1" stop-color="#027CC4"/>
</linearGradient>
</defs>
</svg>
