<svg width="31" height="30" viewBox="0 0 31 30" fill="none" xmlns="http://www.w3.org/2000/svg">
<path d="M8.70557 10.7996H19.529V13.6987H15.5598V21.6223H12.3086V13.6987L8.70557 13.6845V10.7996Z" fill="url(#paint0_linear_60_2818)"/>
<path d="M19.5357 2.25391H0V29.9998H27.7547V10.7283H23.7579V26.0217H3.97836V6.20643H19.5357V2.25391Z" fill="url(#paint1_linear_60_2818)"/>
<path d="M21.2312 0V9.04724H30.279V0H21.2312ZM25.8265 7.4985C25.012 7.4985 23.8676 7.17297 23.5655 5.99951L24.7966 5.67398C25.0411 6.62711 26.6312 6.60792 26.5786 5.60219C26.5786 5.19991 26.1955 4.86016 25.0745 4.91276V3.95466C26.1713 4.00725 26.4634 3.69097 26.4492 3.23111C26.4208 2.49334 25.1413 2.40236 24.9693 3.27873L23.7332 2.9866C23.9841 2.14507 24.7554 1.55869 25.8393 1.55869C26.9233 1.55869 27.8118 2.28367 27.8118 3.16785C27.8118 4.05203 27.6853 4.14372 26.8636 4.37472V4.40812C27.2261 4.45787 27.9433 4.88646 27.9433 5.73155C27.9433 6.57664 27.2922 7.47504 25.8265 7.49921V7.4985Z" fill="url(#paint2_linear_60_2818)"/>
<defs>
<linearGradient id="paint0_linear_60_2818" x1="14.1173" y1="10.7996" x2="14.1173" y2="21.6223" gradientUnits="userSpaceOnUse">
<stop stop-color="#05C4A1"/>
<stop offset="1" stop-color="#027CC4"/>
</linearGradient>
<linearGradient id="paint1_linear_60_2818" x1="13.8774" y1="2.25391" x2="13.8774" y2="29.9998" gradientUnits="userSpaceOnUse">
<stop stop-color="#05C4A1"/>
<stop offset="1" stop-color="#027CC4"/>
</linearGradient>
<linearGradient id="paint2_linear_60_2818" x1="25.7551" y1="0" x2="25.7551" y2="9.04724" gradientUnits="userSpaceOnUse">
<stop stop-color="#05C4A1"/>
<stop offset="1" stop-color="#027CC4"/>
</linearGradient>
</defs>
</svg>
