<svg width="28" height="30" viewBox="0 0 28 30" fill="none" xmlns="http://www.w3.org/2000/svg">
<path d="M2.92047 29.2683C2.11734 29.2683 1.42981 28.9817 0.857888 28.4085C0.285963 27.8354 0 27.1463 0 26.3415V5.85366C0 5.04878 0.285963 4.35976 0.857888 3.78659C1.42981 3.21341 2.11734 2.92683 2.92047 2.92683H4.3807V0H7.30117V2.92683H18.9831V0H21.9035V2.92683H23.3638C24.1669 2.92683 24.8544 3.21341 25.4263 3.78659C25.9983 4.35976 26.2842 5.04878 26.2842 5.85366V15.1829L23.3638 18.1098V11.7073H2.92047V26.3415H11.9739L14.8944 29.2683H2.92047ZM19.7862 30L14.6023 24.8049L16.6467 22.7561L19.7497 25.8659L25.9557 19.6463L28 21.7317L19.7862 30Z" fill="url(#paint0_linear_60_2838)"/>
<defs>
<linearGradient id="paint0_linear_60_2838" x1="14" y1="0" x2="14" y2="30" gradientUnits="userSpaceOnUse">
<stop stop-color="#05C4A1"/>
<stop offset="1" stop-color="#027CC4"/>
</linearGradient>
</defs>
</svg>
