<svg width="30" height="30" viewBox="0 0 30 30" fill="none" xmlns="http://www.w3.org/2000/svg">
<path d="M15 21.6667C14.0833 21.6667 13.2986 21.3403 12.6458 20.6875C11.9931 20.0347 11.6667 19.25 11.6667 18.3333C11.6667 17.4167 11.9931 16.6319 12.6458 15.9792C13.2986 15.3264 14.0833 15 15 15C15.9167 15 16.7014 15.3264 17.3542 15.9792C18.0069 16.6319 18.3333 17.4167 18.3333 18.3333C18.3333 19.25 18.0069 20.0347 17.3542 20.6875C16.7014 21.3403 15.9167 21.6667 15 21.6667ZM7.29167 6.66667H22.7083L26.0417 0H3.95833L7.29167 6.66667ZM9 30H21C23.5 30 25.625 29.1319 27.375 27.3958C29.125 25.6597 30 23.5278 30 21C30 19.9444 29.8194 18.9167 29.4583 17.9167C29.0972 16.9167 28.5833 16.0139 27.9167 15.2083L23.5833 10H6.41667L2.08333 15.2083C1.41667 16.0139 0.902778 16.9167 0.541667 17.9167C0.180556 18.9167 0 19.9444 0 21C0 23.5278 0.868056 25.6597 2.60417 27.3958C4.34028 29.1319 6.47222 30 9 30Z" fill="url(#paint0_linear_60_2848)"/>
<defs>
<linearGradient id="paint0_linear_60_2848" x1="15" y1="0" x2="15" y2="30" gradientUnits="userSpaceOnUse">
<stop stop-color="#05C4A1"/>
<stop offset="1" stop-color="#027CC4"/>
</linearGradient>
</defs>
</svg>
