<svg width="25" height="25" viewBox="0 0 25 25" fill="none" xmlns="http://www.w3.org/2000/svg">
<path d="M12.5 18.0556C11.7361 18.0556 11.0822 17.7836 10.5382 17.2396C9.99421 16.6956 9.72222 16.0417 9.72222 15.2778C9.72222 14.5139 9.99421 13.86 10.5382 13.316C11.0822 12.772 11.7361 12.5 12.5 12.5C13.2639 12.5 13.9178 12.772 14.4618 13.316C15.0058 13.86 15.2778 14.5139 15.2778 15.2778C15.2778 16.0417 15.0058 16.6956 14.4618 17.2396C13.9178 17.7836 13.2639 18.0556 12.5 18.0556ZM6.07639 5.55556H18.9236L21.7014 0H3.29861L6.07639 5.55556ZM7.5 25H17.5C19.5833 25 21.3542 24.2766 22.8125 22.8299C24.2708 21.3831 25 19.6065 25 17.5C25 16.6204 24.8495 15.7639 24.5486 14.9306C24.2477 14.0972 23.8194 13.3449 23.2639 12.6736L19.6528 8.33333H5.34722L1.73611 12.6736C1.18056 13.3449 0.752315 14.0972 0.451389 14.9306C0.150463 15.7639 0 16.6204 0 17.5C0 19.6065 0.72338 21.3831 2.17014 22.8299C3.6169 24.2766 5.39352 25 7.5 25Z" fill="url(#paint0_linear_79_600)"/>
<defs>
<linearGradient id="paint0_linear_79_600" x1="12.5" y1="0" x2="12.5" y2="25" gradientUnits="userSpaceOnUse">
<stop stop-color="#05C4A1"/>
<stop offset="1" stop-color="#027CC4"/>
</linearGradient>
</defs>
</svg>
