<svg width="23" height="25" viewBox="0 0 23 25" fill="none" xmlns="http://www.w3.org/2000/svg">
<path d="M2.39896 24.3902C1.73924 24.3902 1.17449 24.1514 0.704694 23.6738C0.234898 23.1961 0 22.622 0 21.9512V4.87805C0 4.20732 0.234898 3.63313 0.704694 3.15549C1.17449 2.67785 1.73924 2.43902 2.39896 2.43902H3.59844V0H5.99739V2.43902H15.5932V0H17.9922V2.43902H19.1917C19.8514 2.43902 20.4161 2.67785 20.8859 3.15549C21.3557 3.63313 21.5906 4.20732 21.5906 4.87805V12.6524L19.1917 15.0915V9.7561H2.39896V21.9512H9.83572L12.2347 24.3902H2.39896ZM16.2529 25L11.9948 20.6707L13.6741 18.9634L16.2229 21.5549L21.3207 16.372L23 18.1098L16.2529 25Z" fill="url(#paint0_linear_79_612)"/>
<defs>
<linearGradient id="paint0_linear_79_612" x1="11.5" y1="0" x2="11.5" y2="25" gradientUnits="userSpaceOnUse">
<stop stop-color="#05C4A1"/>
<stop offset="1" stop-color="#027CC4"/>
</linearGradient>
</defs>
</svg>
