<svg width="921" height="1099" viewBox="0 0 921 1099" fill="none" xmlns="http://www.w3.org/2000/svg">
<rect x="667" y="272" width="254" height="1" fill="url(#paint0_linear_2095_56)" fill-opacity="0.1"/>
<rect x="667" y="302" width="254" height="1" fill="url(#paint1_linear_2095_56)" fill-opacity="0.1"/>
<rect x="398" y="514" width="585" height="0.999994" transform="rotate(90 398 514)" fill="url(#paint2_linear_2095_56)" fill-opacity="0.1"/>
<rect x="428" y="514" width="585" height="0.999994" transform="rotate(90 428 514)" fill="url(#paint3_linear_2095_56)" fill-opacity="0.1"/>
<rect x="458" y="514" width="585" height="0.999994" transform="rotate(90 458 514)" fill="url(#paint4_linear_2095_56)" fill-opacity="0.1"/>
<rect x="398" width="60" height="1" transform="rotate(90 398 0)" fill="url(#paint5_linear_2095_56)" fill-opacity="0.1"/>
<rect x="428" width="60" height="1" transform="rotate(90 428 0)" fill="url(#paint6_linear_2095_56)" fill-opacity="0.1"/>
<rect x="458" width="60" height="1" transform="rotate(90 458 0)" fill="url(#paint7_linear_2095_56)" fill-opacity="0.1"/>
<rect y="272" width="187" height="1" fill="url(#paint8_linear_2095_56)" fill-opacity="0.1"/>
<rect y="302" width="187" height="1" fill="url(#paint9_linear_2095_56)" fill-opacity="0.1"/>
<defs>
<linearGradient id="paint0_linear_2095_56" x1="667" y1="272.5" x2="921" y2="272.5" gradientUnits="userSpaceOnUse">
<stop stop-color="white" stop-opacity="0"/>
<stop offset="1" stop-color="white"/>
</linearGradient>
<linearGradient id="paint1_linear_2095_56" x1="667" y1="302.5" x2="921" y2="302.5" gradientUnits="userSpaceOnUse">
<stop stop-color="white" stop-opacity="0"/>
<stop offset="1" stop-color="white"/>
</linearGradient>
<linearGradient id="paint2_linear_2095_56" x1="398" y1="514.5" x2="983" y2="514.5" gradientUnits="userSpaceOnUse">
<stop stop-color="white" stop-opacity="0"/>
<stop offset="1" stop-color="white"/>
</linearGradient>
<linearGradient id="paint3_linear_2095_56" x1="428" y1="514.5" x2="1013" y2="514.5" gradientUnits="userSpaceOnUse">
<stop stop-color="white" stop-opacity="0"/>
<stop offset="1" stop-color="white"/>
</linearGradient>
<linearGradient id="paint4_linear_2095_56" x1="458" y1="514.5" x2="1043" y2="514.5" gradientUnits="userSpaceOnUse">
<stop stop-color="white" stop-opacity="0"/>
<stop offset="1" stop-color="white"/>
</linearGradient>
<linearGradient id="paint5_linear_2095_56" x1="398" y1="0.5" x2="458" y2="0.5" gradientUnits="userSpaceOnUse">
<stop stop-color="white"/>
<stop offset="1" stop-color="white" stop-opacity="0"/>
</linearGradient>
<linearGradient id="paint6_linear_2095_56" x1="428" y1="0.5" x2="488" y2="0.5" gradientUnits="userSpaceOnUse">
<stop stop-color="white"/>
<stop offset="1" stop-color="white" stop-opacity="0"/>
</linearGradient>
<linearGradient id="paint7_linear_2095_56" x1="458" y1="0.5" x2="518" y2="0.5" gradientUnits="userSpaceOnUse">
<stop stop-color="white"/>
<stop offset="1" stop-color="white" stop-opacity="0"/>
</linearGradient>
<linearGradient id="paint8_linear_2095_56" x1="0" y1="272.5" x2="187" y2="272.5" gradientUnits="userSpaceOnUse">
<stop stop-color="white" stop-opacity="0"/>
<stop offset="0.5" stop-color="white"/>
<stop offset="1" stop-color="white" stop-opacity="0"/>
</linearGradient>
<linearGradient id="paint9_linear_2095_56" x1="0" y1="302.5" x2="187" y2="302.5" gradientUnits="userSpaceOnUse">
<stop stop-color="white" stop-opacity="0"/>
<stop offset="0.5" stop-color="white"/>
<stop offset="1" stop-color="white" stop-opacity="0"/>
</linearGradient>
</defs>
</svg>
