<svg width="954" height="605" viewBox="0 0 954 605" fill="none" xmlns="http://www.w3.org/2000/svg">
<rect x="834" y="272" width="120" height="1" fill="url(#paint0_linear_60_780)" fill-opacity="0.1"/>
<rect x="834" y="302" width="120" height="1" fill="url(#paint1_linear_60_780)" fill-opacity="0.1"/>
<rect x="565" y="514" width="140" height="1" transform="rotate(90 565 514)" fill="url(#paint2_linear_60_780)" fill-opacity="0.1"/>
<rect x="595" y="514" width="140" height="1" transform="rotate(90 595 514)" fill="url(#paint3_linear_60_780)" fill-opacity="0.1"/>
<rect x="625" y="514" width="140" height="1" transform="rotate(90 625 514)" fill="url(#paint4_linear_60_780)" fill-opacity="0.1"/>
<rect x="565" width="60" height="1" transform="rotate(90 565 0)" fill="url(#paint5_linear_60_780)" fill-opacity="0.1"/>
<rect x="595" width="60" height="1" transform="rotate(90 595 0)" fill="url(#paint6_linear_60_780)" fill-opacity="0.1"/>
<rect x="625" width="60" height="1" transform="rotate(90 625 0)" fill="url(#paint7_linear_60_780)" fill-opacity="0.1"/>
<rect y="272" width="354" height="1" fill="url(#paint8_linear_60_780)" fill-opacity="0.1"/>
<rect y="302" width="354" height="1" fill="url(#paint9_linear_60_780)" fill-opacity="0.1"/>
<defs>
<linearGradient id="paint0_linear_60_780" x1="834" y1="272.5" x2="954" y2="272.5" gradientUnits="userSpaceOnUse">
<stop stop-color="white" stop-opacity="0"/>
<stop offset="1" stop-color="white"/>
</linearGradient>
<linearGradient id="paint1_linear_60_780" x1="834" y1="302.5" x2="954" y2="302.5" gradientUnits="userSpaceOnUse">
<stop stop-color="white" stop-opacity="0"/>
<stop offset="1" stop-color="white"/>
</linearGradient>
<linearGradient id="paint2_linear_60_780" x1="565" y1="514.5" x2="705" y2="514.5" gradientUnits="userSpaceOnUse">
<stop stop-color="white" stop-opacity="0"/>
<stop offset="1" stop-color="white"/>
</linearGradient>
<linearGradient id="paint3_linear_60_780" x1="595" y1="514.5" x2="735" y2="514.5" gradientUnits="userSpaceOnUse">
<stop stop-color="white" stop-opacity="0"/>
<stop offset="1" stop-color="white"/>
</linearGradient>
<linearGradient id="paint4_linear_60_780" x1="625" y1="514.5" x2="765" y2="514.5" gradientUnits="userSpaceOnUse">
<stop stop-color="white" stop-opacity="0"/>
<stop offset="1" stop-color="white"/>
</linearGradient>
<linearGradient id="paint5_linear_60_780" x1="565" y1="0.5" x2="625" y2="0.5" gradientUnits="userSpaceOnUse">
<stop stop-color="white"/>
<stop offset="1" stop-color="white" stop-opacity="0"/>
</linearGradient>
<linearGradient id="paint6_linear_60_780" x1="595" y1="0.5" x2="655" y2="0.5" gradientUnits="userSpaceOnUse">
<stop stop-color="white"/>
<stop offset="1" stop-color="white" stop-opacity="0"/>
</linearGradient>
<linearGradient id="paint7_linear_60_780" x1="625" y1="0.5" x2="685" y2="0.5" gradientUnits="userSpaceOnUse">
<stop stop-color="white"/>
<stop offset="1" stop-color="white" stop-opacity="0"/>
</linearGradient>
<linearGradient id="paint8_linear_60_780" x1="0" y1="272.5" x2="354" y2="272.5" gradientUnits="userSpaceOnUse">
<stop stop-color="white" stop-opacity="0"/>
<stop offset="0.5" stop-color="white"/>
<stop offset="1" stop-color="white" stop-opacity="0"/>
</linearGradient>
<linearGradient id="paint9_linear_60_780" x1="0" y1="302.5" x2="354" y2="302.5" gradientUnits="userSpaceOnUse">
<stop stop-color="white" stop-opacity="0"/>
<stop offset="0.5" stop-color="white"/>
<stop offset="1" stop-color="white" stop-opacity="0"/>
</linearGradient>
</defs>
</svg>
