<svg width="22" height="20" viewBox="0 0 22 20" fill="none" xmlns="http://www.w3.org/2000/svg">
<path d="M9.44625 9.34722C9.01542 8.91204 8.8 8.38889 8.8 7.77778C8.8 7.16667 9.01542 6.64352 9.44625 6.20833C9.87708 5.77315 10.395 5.55556 11 5.55556C11.605 5.55556 12.1229 5.77315 12.5538 6.20833C12.9846 6.64352 13.2 7.16667 13.2 7.77778C13.2 8.38889 12.9846 8.91204 12.5538 9.34722C12.1229 9.78241 11.605 10 11 10C10.395 10 9.87708 9.78241 9.44625 9.34722ZM4.95 6.66667C5.26167 6.66667 5.52292 6.56019 5.73375 6.34722C5.94458 6.13426 6.05 5.87037 6.05 5.55556C6.05 5.24074 5.94458 4.97685 5.73375 4.76389C5.52292 4.55093 5.26167 4.44444 4.95 4.44444C4.63833 4.44444 4.37708 4.55093 4.16625 4.76389C3.95542 4.97685 3.85 5.24074 3.85 5.55556C3.85 5.87037 3.95542 6.13426 4.16625 6.34722C4.37708 6.56019 4.63833 6.66667 4.95 6.66667ZM2.2 20V17.7778H5.7475L6.325 15.4444C4.51 15.1296 3.00208 14.2546 1.80125 12.8194C0.600417 11.3843 0 9.7037 0 7.77778C0 5.61111 0.747083 3.77315 2.24125 2.26389C3.73542 0.75463 5.555 0 7.7 0H14.3C16.445 0 18.2646 0.75463 19.7588 2.26389C21.2529 3.77315 22 5.61111 22 7.77778C22 9.7037 21.3996 11.3843 20.1988 12.8194C18.9979 14.2546 17.49 15.1296 15.675 15.4444L16.2525 17.7778H19.8V20H2.2ZM14.1075 10.9167C14.9692 10.0463 15.4 9 15.4 7.77778C15.4 6.55556 14.9692 5.50926 14.1075 4.63889C13.2458 3.76852 12.21 3.33333 11 3.33333C9.79 3.33333 8.75417 3.76852 7.8925 4.63889C7.03083 5.50926 6.6 6.55556 6.6 7.77778C6.6 9 7.03083 10.0463 7.8925 10.9167C8.75417 11.787 9.79 12.2222 11 12.2222C12.21 12.2222 13.2458 11.787 14.1075 10.9167Z" fill="url(#paint0_linear_60_851)"/>
<defs>
<linearGradient id="paint0_linear_60_851" x1="11" y1="0" x2="11" y2="20" gradientUnits="userSpaceOnUse">
<stop stop-color="#05C4A1"/>
<stop offset="1" stop-color="#027CC4"/>
</linearGradient>
</defs>
</svg>
