<svg width="33" height="30" viewBox="0 0 33 30" fill="none" xmlns="http://www.w3.org/2000/svg">
<path d="M6.6 30V26.6667L8.25 25H3.3C2.3925 25 1.61563 24.6736 0.969375 24.0208C0.323125 23.3681 0 22.5833 0 21.6667V3.33333C0 2.41667 0.323125 1.63194 0.969375 0.979167C1.61563 0.326389 2.3925 0 3.3 0H29.7C30.6075 0 31.3844 0.326389 32.0306 0.979167C32.6769 1.63194 33 2.41667 33 3.33333V21.6667C33 22.5833 32.6769 23.3681 32.0306 24.0208C31.3844 24.6736 30.6075 25 29.7 25H24.75L26.4 26.6667V30H6.6ZM3.3 21.6667H29.7V3.33333H3.3V21.6667Z" fill="url(#paint0_linear_60_4109)"/>
<defs>
<linearGradient id="paint0_linear_60_4109" x1="16.5" y1="0" x2="16.5" y2="30" gradientUnits="userSpaceOnUse">
<stop stop-color="#05C4A1"/>
<stop offset="1" stop-color="#027CC4"/>
</linearGradient>
</defs>
</svg>
