<svg width="24" height="24" viewBox="0 0 24 24" fill="none" xmlns="http://www.w3.org/2000/svg">
<path d="M5 22C4.45 22 3.97917 21.8042 3.5875 21.4125C3.19583 21.0208 3 20.55 3 20V6C3 5.45 3.19583 4.97917 3.5875 4.5875C3.97917 4.19583 4.45 4 5 4H6V2H8V4H16V2H18V4H19C19.55 4 20.0208 4.19583 20.4125 4.5875C20.8042 4.97917 21 5.45 21 6V12.375L19 14.375V10H5V20H11.2L13.2 22H5ZM5 8H19V6H5V8ZM16.55 22.5L13 18.95L14.4 17.55L16.525 19.675L20.775 15.425L22.175 16.85L16.55 22.5Z" fill="url(#paint0_linear_60_270)"/>
<defs>
<linearGradient id="paint0_linear_60_270" x1="12.5875" y1="2" x2="12.5875" y2="22.5" gradientUnits="userSpaceOnUse">
<stop stop-color="#05C4A1"/>
<stop offset="1" stop-color="#027CC4"/>
</linearGradient>
</defs>
</svg>
