<svg width="89" height="18" viewBox="0 0 89 18" fill="none" xmlns="http://www.w3.org/2000/svg">
<path d="M17.7893 2.78345L4.83374 7.45528C4.51559 7.54768 4.23591 7.74059 4.0365 8.00515C3.83709 8.26972 3.72868 8.59172 3.72748 8.92302V16.2362C3.72748 17.4199 4.89383 18.2667 6.04835 17.9225L19.0039 13.2507C19.3219 13.1581 19.6014 12.9651 19.8006 12.7006C19.9998 12.436 20.1081 12.1141 20.1093 11.7829V4.46972C20.1093 3.28605 18.9447 2.43928 17.7893 2.78345ZM11.8155 13.7724C10.071 13.7724 8.65694 12.3866 8.65694 10.6767C8.65694 8.96672 10.071 7.58093 11.8155 7.58093C13.56 7.58093 14.974 8.96763 14.974 10.6767C14.974 12.3857 13.56 13.7724 11.8155 13.7724Z" fill="#05C4A0"/>
<path d="M15.2755 10.5404L2.31996 15.2122C1.16544 15.5564 0 14.7087 0 13.5259V6.21271C0.00198851 5.88204 0.11076 5.56086 0.310108 5.29703C0.509456 5.0332 0.78871 4.84084 1.10626 4.74861L14.0609 0.0776973C15.2163 -0.267386 16.3827 0.580298 16.3827 1.76396V9.07626C16.3803 9.40697 16.2713 9.7281 16.0719 9.99189C15.8724 10.2557 15.5931 10.448 15.2755 10.5404Z" fill="white"/>
<path d="M22.5375 5.69219V4.41748H29.2442V5.69219H26.6466V12.8224H25.1351V5.69219H22.5375Z" fill="white"/>
<path d="M29.3602 12.822V6.51673H30.8016V7.56837H30.8671C30.9634 7.2275 31.1723 6.92932 31.4599 6.7225C31.7414 6.52482 32.0783 6.42124 32.4223 6.42659C32.5051 6.42659 32.5971 6.42659 32.6954 6.4366C32.7812 6.44172 32.8667 6.45206 32.9513 6.46756V7.83333C32.8543 7.80433 32.755 7.78421 32.6544 7.77323C32.5243 7.75616 32.3932 7.74734 32.262 7.74683C32.0757 7.74075 31.8901 7.77148 31.7158 7.83726C31.5414 7.90304 31.3817 8.00257 31.2459 8.13015C31.1129 8.25621 31.0081 8.40902 30.9384 8.57852C30.8687 8.74801 30.8357 8.93034 30.8416 9.1135V12.8202L29.3602 12.822Z" fill="white"/>
<path d="M35.1902 12.9499C34.5881 12.9499 34.0858 12.7884 33.6833 12.4655C33.2809 12.1426 33.08 11.6718 33.0806 11.0533C33.0806 10.5798 33.1947 10.2126 33.4229 9.95157C33.6617 9.68275 33.9697 9.48465 34.3134 9.37886C34.6905 9.25733 35.0793 9.17554 35.4734 9.13484C36.0288 9.07414 36.4276 9.01799 36.6698 8.9664C36.912 8.9148 37.0334 8.78217 37.034 8.5685V8.54301C37.034 8.23404 36.9429 7.99488 36.7608 7.82553C36.5787 7.65617 36.3147 7.57119 35.9687 7.57059C35.6045 7.57059 35.3165 7.6501 35.1046 7.80914C34.9071 7.94992 34.7579 8.14838 34.6776 8.3773L33.29 8.18063C33.4277 7.63756 33.7712 7.16934 34.2478 6.87496C34.7262 6.58177 35.2961 6.43518 35.9578 6.43518C36.2626 6.43546 36.5663 6.47121 36.8628 6.54171C37.1568 6.61065 37.4365 6.73019 37.6895 6.89499C37.9431 7.06269 38.1506 7.29119 38.2932 7.55966C38.4551 7.88297 38.5334 8.24173 38.5208 8.6031V12.8224H37.0904V11.9565H37.0449C36.8919 12.2421 36.6661 12.4821 36.3902 12.6521C36.0855 12.8506 35.6855 12.9499 35.1902 12.9499ZM35.5763 11.8573C36.0242 11.8573 36.3799 11.7286 36.6434 11.4712C36.7683 11.3548 36.8677 11.2139 36.9354 11.0572C37.0031 10.9004 37.0376 10.7314 37.0367 10.5607V9.81772C36.9323 9.88735 36.8144 9.93419 36.6907 9.95521C36.5223 9.99527 36.3438 10.0281 36.1544 10.0563L35.6746 10.1255C35.3823 10.1588 35.1 10.2518 34.8451 10.3986C34.7374 10.4632 34.6494 10.5561 34.5908 10.6672C34.5322 10.7783 34.5052 10.9033 34.5128 11.0287C34.5059 11.149 34.5297 11.2691 34.5822 11.3776C34.6346 11.4861 34.7138 11.5794 34.8123 11.6488C35.0391 11.796 35.3061 11.8692 35.5763 11.8582V11.8573Z" fill="white"/>
<path d="M41.9062 12.9297C41.4349 12.9364 40.9721 12.8037 40.5759 12.5482C40.1681 12.2736 39.8464 11.8891 39.6481 11.4392C39.4217 10.9536 39.3082 10.3654 39.3076 9.67463C39.3076 8.97354 39.4233 8.38231 39.6545 7.90096C39.8567 7.45487 40.1821 7.0758 40.5923 6.80834C40.9865 6.55894 41.4444 6.42897 41.9107 6.43413C42.2244 6.42128 42.5366 6.48372 42.8212 6.61623C43.0383 6.72579 43.231 6.87817 43.3876 7.0642C43.514 7.21604 43.623 7.38157 43.7126 7.55769H43.7736V4.41553H45.2641V12.8223H43.8073V11.8289H43.7163C43.6249 12.0036 43.513 12.1668 43.383 12.3151C43.223 12.4981 43.0276 12.6468 42.8085 12.7521C42.5259 12.8816 42.2168 12.9425 41.9062 12.9297ZM42.3205 11.7105C42.5358 11.7186 42.7496 11.6708 42.941 11.5719C43.1324 11.473 43.2951 11.3263 43.4131 11.146C43.6698 10.7703 43.7985 10.2771 43.7991 9.66643C43.7997 9.05579 43.6729 8.56775 43.4185 8.20233C43.1636 7.83813 42.7967 7.65603 42.3177 7.65603C41.8224 7.65603 41.4491 7.84481 41.1978 8.22237C40.9465 8.59992 40.8206 9.0831 40.82 9.6719C40.82 10.2631 40.9471 10.7515 41.2015 11.1369C41.4558 11.5224 41.8288 11.7148 42.3205 11.7142V11.7105Z" fill="white"/>
<path d="M49.1927 12.9453C48.5608 12.9453 48.0145 12.8126 47.5538 12.5474C47.0983 12.2849 46.7305 11.8937 46.4967 11.4229C46.2396 10.8881 46.1132 10.2998 46.1279 9.70659C46.1152 9.11589 46.2415 8.53047 46.4967 7.99757C46.7283 7.52299 47.0902 7.12413 47.5401 6.84759C48.0158 6.56513 48.5613 6.4222 49.1144 6.43513C49.612 6.43067 50.1034 6.54557 50.5475 6.7702C50.9945 7.00275 51.3613 7.36442 51.6 7.80818C51.8641 8.278 51.9961 8.88228 51.9961 9.621V10.0763H47.6066C47.6145 10.6153 47.7644 11.0353 48.0564 11.3364C48.3483 11.6375 48.7347 11.7892 49.2154 11.7917C49.5062 11.7992 49.7936 11.7274 50.0467 11.5841C50.28 11.4471 50.4581 11.2329 50.5502 10.9786L51.9369 11.1352C51.8105 11.6752 51.4825 12.1465 51.0201 12.4527C50.5375 12.7817 49.9284 12.9459 49.1927 12.9453ZM47.6066 9.0747H50.5703C50.5812 8.68229 50.4381 8.30119 50.1715 8.01305C50.038 7.87428 49.8766 7.76531 49.6981 7.69328C49.5195 7.62126 49.3277 7.58781 49.1353 7.59512C48.9345 7.5875 48.7343 7.62269 48.5482 7.69835C48.362 7.77402 48.194 7.88843 48.0555 8.03399C47.7837 8.31439 47.624 8.6846 47.6066 9.0747Z" fill="white"/>
<path d="M52.5234 12.8225V4.41577H58.4326V6.255H54.8042V7.69998H58.072V9.5383H54.8042V12.8225H52.5234Z" fill="#05C4A0"/>
<path d="M62.5458 10.0642V6.51318H64.8148V12.8185H62.6615V11.6239H62.5959C62.4702 12.0101 62.2169 12.3421 61.8775 12.5653C61.5202 12.7808 61.1122 12.8976 60.695 12.9038C60.2779 12.9101 59.8665 12.8055 59.5029 12.6008C59.1735 12.3993 58.9075 12.109 58.7354 11.7632C58.5475 11.3829 58.4523 10.9636 58.4577 10.5395V6.51683H60.7239V10.0678C60.7239 10.3792 60.8037 10.6238 60.9634 10.8017C61.0474 10.8925 61.1505 10.9636 61.2653 11.0099C61.38 11.0562 61.5036 11.0765 61.6271 11.0694C61.7519 11.0752 61.8764 11.0544 61.9925 11.0082C62.1085 10.9621 62.2134 10.8916 62.3 10.8017C62.4669 10.622 62.5489 10.3762 62.5458 10.0642Z" fill="#05C4A0"/>
<path d="M67.7767 9.27596V12.8224H65.5104V6.51711H67.661V7.71625H67.7284C67.8564 7.32862 68.1135 6.99662 68.4568 6.7757C68.8127 6.56025 69.2195 6.44325 69.6354 6.43669C70.0514 6.43013 70.4616 6.53424 70.8241 6.73837C71.1535 6.94111 71.4197 7.23188 71.5926 7.57786C71.7792 7.9566 71.8714 8.37491 71.8612 8.79703V12.8197H69.5986V9.27596C69.5986 8.96335 69.52 8.71842 69.3628 8.54118C69.2776 8.45083 69.1738 8.38015 69.0585 8.33407C68.9433 8.288 68.8193 8.26763 68.6954 8.2744C68.5714 8.26835 68.4475 8.28904 68.3322 8.33507C68.2169 8.3811 68.1128 8.45139 68.0271 8.54118C67.8623 8.71872 67.7794 8.96365 67.7767 9.27596Z" fill="#05C4A0"/>
<path d="M74.8126 12.9044C74.375 12.9075 73.9456 12.7852 73.5752 12.5521C73.1766 12.2901 72.8627 11.9177 72.672 11.4804C72.4462 11.0015 72.3333 10.3981 72.3333 9.67032C72.3333 8.90913 72.4517 8.29059 72.6884 7.8147C72.9251 7.33881 73.2317 6.98978 73.608 6.76762C73.9653 6.55199 74.3743 6.43715 74.7917 6.43528C75.2597 6.43528 75.6415 6.55243 75.9371 6.78674C76.2185 7.00127 76.4358 7.28877 76.5653 7.61803H76.5981V4.41577H78.8644V12.8225H76.6191V11.7882H76.5699C76.4367 12.1111 76.2128 12.3884 75.9252 12.5867C75.5973 12.8076 75.2078 12.9188 74.8126 12.9044ZM75.6503 11.1645C75.7973 11.1681 75.9428 11.1327 76.0718 11.0621C76.2008 10.9914 76.3089 10.8879 76.3851 10.762C76.5623 10.4931 76.6512 10.1289 76.6518 9.66941C76.6524 9.20991 76.5635 8.84388 76.3851 8.57133C76.3076 8.44714 76.1991 8.34533 76.0702 8.27601C75.9413 8.2067 75.7966 8.17228 75.6503 8.17617C75.5046 8.17145 75.3603 8.20567 75.2323 8.27529C75.1042 8.34491 74.9971 8.44742 74.9219 8.57225C74.7495 8.83629 74.6633 9.20232 74.6633 9.67032C74.6633 10.1383 74.7495 10.5043 74.9219 10.7684C74.9971 10.8932 75.1042 10.9957 75.2323 11.0653C75.3603 11.135 75.5046 11.1692 75.6503 11.1645Z" fill="#05C4A0"/>
<path d="M79.5343 12.8224V6.51707H81.7341V7.71621H81.7996C81.9144 7.2731 82.0965 6.94866 82.3459 6.74288C82.5935 6.53883 82.9056 6.42972 83.2264 6.43513C83.4213 6.43763 83.6148 6.4683 83.8009 6.52618V8.45919C83.6662 8.41633 83.5273 8.38764 83.3866 8.3736C83.2465 8.35592 83.1054 8.34619 82.9642 8.34447C82.8101 8.33994 82.6568 8.36674 82.5134 8.42324C82.3701 8.47974 82.2397 8.56477 82.1301 8.67316C82.0181 8.78758 81.9308 8.92381 81.8736 9.0734C81.8165 9.22298 81.7907 9.38272 81.7978 9.5427V12.8269L79.5343 12.8224Z" fill="#05C4A0"/>
<path d="M84.0903 12.8224V6.51707H86.291V7.71621H86.3565C86.4712 7.2731 86.6533 6.94866 86.9028 6.74288C87.1504 6.53883 87.4625 6.42972 87.7833 6.43513C87.9782 6.43763 88.1717 6.4683 88.3578 6.52618V8.45919C88.2231 8.41633 88.0842 8.38764 87.9435 8.3736C87.8031 8.35592 87.6617 8.34619 87.5201 8.34447C87.3663 8.34001 87.2131 8.36685 87.0699 8.42335C86.9267 8.47985 86.7964 8.56483 86.687 8.67316C86.575 8.78758 86.4877 8.92381 86.4305 9.0734C86.3733 9.22298 86.3475 9.38272 86.3547 9.5427V12.8269L84.0903 12.8224Z" fill="#05C4A0"/>
</svg>
