<svg width="197" height="40" viewBox="0 0 197 40" fill="none" xmlns="http://www.w3.org/2000/svg">
<path d="M39.5317 6.18588L10.7416 16.5677C10.0346 16.773 9.41303 17.2017 8.9699 17.7896C8.52678 18.3775 8.28586 19.0931 8.28319 19.8293V36.0808C8.28319 38.7111 10.8751 40.5928 13.4407 39.828L42.2308 29.4462C42.9375 29.2405 43.5585 28.8117 44.0013 28.2238C44.444 27.6359 44.6846 26.9205 44.6872 26.1846V9.93311C44.6872 7.30276 42.0993 5.42106 39.5317 6.18588ZM26.2565 30.6056C22.3798 30.6056 19.2376 27.5261 19.2376 23.7262C19.2376 19.9264 22.3798 16.8469 26.2565 16.8469C30.1333 16.8469 33.2755 19.9284 33.2755 23.7262C33.2755 27.5241 30.1333 30.6056 26.2565 30.6056Z" fill="#05C4A0"/>
<path d="M33.9456 23.4229L5.15548 33.8047C2.58988 34.5695 0 32.6858 0 30.0574V13.8059C0.00441891 13.0711 0.246134 12.3574 0.68913 11.7711C1.13213 11.1848 1.75269 10.7574 2.45836 10.5524L31.2465 0.17266C33.8141 -0.594187 36.406 1.28955 36.406 3.91989V20.1694C36.4008 20.9043 36.1586 21.6179 35.7153 22.2041C35.272 22.7903 34.6513 23.2177 33.9456 23.4229Z" fill="white"/>
<path d="M50.0836 12.6487V9.81599H64.9876V12.6487H59.215V28.4935H55.8562V12.6487H50.0836Z" fill="white"/>
<path d="M65.2448 28.4935V14.4819H68.4477V16.8188H68.5934C68.8073 16.0613 69.2716 15.3987 69.9106 14.9391C70.5363 14.4998 71.2849 14.2697 72.0493 14.2816C72.2334 14.2816 72.4378 14.2816 72.6563 14.3038C72.847 14.3152 73.0369 14.3382 73.2249 14.3726V17.4076C73.0095 17.3432 72.7887 17.2985 72.5653 17.2741C72.2761 17.2361 71.9848 17.2165 71.6932 17.2154C71.2793 17.2019 70.8668 17.2702 70.4793 17.4164C70.0918 17.5625 69.737 17.7837 69.4351 18.0672C69.1396 18.3474 68.9067 18.6869 68.7518 19.0636C68.597 19.4402 68.5237 19.8454 68.5368 20.2524V28.4895L65.2448 28.4935Z" fill="white"/>
<path d="M78.2003 28.7771C76.8621 28.7771 75.7459 28.4183 74.8516 27.7007C73.9573 26.9831 73.5108 25.937 73.5122 24.5625C73.5122 23.5104 73.7658 22.6943 74.2729 22.1143C74.8036 21.5169 75.4881 21.0767 76.2518 20.8416C77.0898 20.5715 77.9537 20.3898 78.8295 20.2993C80.0638 20.1644 80.95 20.0397 81.4882 19.925C82.0264 19.8104 82.2962 19.5156 82.2975 19.0408V18.9842C82.2975 18.2976 82.0952 17.7661 81.6905 17.3898C81.2859 17.0134 80.6991 16.8246 79.9302 16.8232C79.1209 16.8232 78.4808 16.9999 78.0101 17.3533C77.571 17.6662 77.2396 18.1072 77.0611 18.6159L73.9775 18.1789C74.2835 16.9721 75.0468 15.9316 76.1061 15.2774C77.169 14.6259 78.4356 14.3001 79.9059 14.3001C80.5832 14.3007 81.2582 14.3802 81.9171 14.5368C82.5704 14.69 83.1921 14.9557 83.7543 15.3219C84.3178 15.6946 84.7789 16.2023 85.0958 16.7989C85.4556 17.5174 85.6295 18.3146 85.6016 19.1177V28.4939H82.423V26.5697H82.3218C81.9819 27.2044 81.4799 27.7377 80.867 28.1155C80.1899 28.5566 79.301 28.7771 78.2003 28.7771ZM79.0581 26.3491C80.0536 26.3491 80.8441 26.0632 81.4295 25.4912C81.7071 25.2326 81.928 24.9194 82.0785 24.5711C82.2289 24.2229 82.3056 23.8472 82.3036 23.4679V21.8168C82.0716 21.9716 81.8096 22.0757 81.5347 22.1224C81.1604 22.2114 80.7638 22.2842 80.343 22.347L79.2767 22.5007C78.6272 22.5749 77.9998 22.7815 77.4334 23.1077C77.194 23.2512 76.9986 23.4576 76.8683 23.7045C76.7381 23.9514 76.6781 24.2293 76.6949 24.5079C76.6795 24.7752 76.7325 25.0421 76.849 25.2832C76.9655 25.5243 77.1416 25.7317 77.3606 25.8858C77.8645 26.2131 78.4577 26.3757 79.0581 26.3511V26.3491Z" fill="white"/>
<path d="M93.1245 28.732C92.0771 28.747 91.0486 28.4521 90.1684 27.8843C89.262 27.2741 88.5471 26.4197 88.1066 25.4198C87.6034 24.3407 87.3512 23.0336 87.3498 21.4986C87.3498 19.9406 87.6068 18.6268 88.1207 17.5571C88.57 16.5658 89.293 15.7235 90.2048 15.1291C91.0806 14.5749 92.0982 14.2861 93.1346 14.2975C93.8317 14.269 94.5254 14.4077 95.1579 14.7022C95.6403 14.9457 96.0684 15.2843 96.4164 15.6977C96.6974 16.0351 96.9397 16.4029 97.1388 16.7943H97.2743V9.81177H100.587V28.4933H97.3492V26.2858H97.1469C96.9437 26.6741 96.6951 27.0368 96.4063 27.3663C96.0508 27.773 95.6164 28.1034 95.1296 28.3375C94.5017 28.6253 93.8146 28.7605 93.1245 28.732ZM94.0451 26.0228C94.5236 26.0407 94.9986 25.9346 95.424 25.7148C95.8494 25.495 96.2108 25.1689 96.4731 24.7683C97.0437 23.9334 97.3296 22.8374 97.331 21.4804C97.3323 20.1234 97.0504 19.0389 96.4852 18.2269C95.9187 17.4175 95.1033 17.0128 94.039 17.0128C92.9383 17.0128 92.1087 17.4324 91.5503 18.2714C90.9919 19.1104 90.712 20.1841 90.7106 21.4925C90.7106 22.8064 90.9932 23.8915 91.5584 24.7481C92.1236 25.6046 92.9525 26.0322 94.0451 26.0309V26.0228Z" fill="white"/>
<path d="M109.317 28.7667C107.913 28.7667 106.699 28.472 105.675 27.8825C104.663 27.2993 103.846 26.4299 103.326 25.3837C102.755 24.1951 102.474 22.8879 102.507 21.5697C102.478 20.257 102.759 18.9561 103.326 17.7719C103.841 16.7172 104.645 15.8309 105.645 15.2164C106.702 14.5887 107.914 14.271 109.143 14.2998C110.249 14.2899 111.341 14.5452 112.328 15.0444C113.321 15.5612 114.136 16.3649 114.667 17.351C115.254 18.395 115.547 19.7379 115.547 21.3795V22.3911H105.793C105.81 23.589 106.143 24.5224 106.792 25.1915C107.441 25.8605 108.299 26.1977 109.368 26.2031C110.014 26.2199 110.653 26.0604 111.215 25.7418C111.734 25.4375 112.129 24.9615 112.334 24.3963L115.416 24.7443C115.135 25.9444 114.406 26.9917 113.378 27.6721C112.306 28.4032 110.952 28.768 109.317 28.7667ZM105.793 20.1655H112.378C112.403 19.2934 112.085 18.4466 111.492 17.8062C111.196 17.4979 110.837 17.2557 110.44 17.0957C110.043 16.9356 109.617 16.8613 109.19 16.8775C108.743 16.8606 108.299 16.9388 107.885 17.1069C107.471 17.2751 107.098 17.5293 106.79 17.8528C106.186 18.4759 105.831 19.2986 105.793 20.1655Z" fill="white"/>
<path d="M116.719 28.4934V9.81189H129.85V13.899H121.787V17.1101H129.049V21.1952H121.787V28.4934H116.719Z" fill="#05C4A0"/>
<path d="M138.991 22.3644V14.4734H144.033V28.485H139.248V25.8304H139.102C138.823 26.6887 138.26 27.4265 137.506 27.9225C136.712 28.4013 135.805 28.6609 134.878 28.6747C133.951 28.6886 133.037 28.4562 132.229 28.0014C131.497 27.5535 130.906 26.9083 130.523 26.14C130.106 25.2949 129.894 24.363 129.906 23.4206V14.4815H134.942V22.3725C134.942 23.0645 135.12 23.6081 135.474 24.0033C135.661 24.2051 135.89 24.3631 136.145 24.466C136.4 24.5688 136.675 24.614 136.949 24.5982C137.227 24.6112 137.504 24.5649 137.761 24.4623C138.019 24.3597 138.252 24.2032 138.445 24.0033C138.816 23.604 138.998 23.0577 138.991 22.3644Z" fill="#05C4A0"/>
<path d="M150.615 20.6124V28.4934H145.579V14.4817H150.358V17.1465H150.508C150.792 16.285 151.364 15.5473 152.127 15.0563C152.917 14.5776 153.821 14.3176 154.746 14.303C155.67 14.2884 156.582 14.5198 157.387 14.9734C158.119 15.4239 158.711 16.0701 159.095 16.8389C159.51 17.6806 159.715 18.6101 159.692 19.5482V28.4873H154.664V20.6124C154.664 19.9178 154.489 19.3735 154.14 18.9796C153.951 18.7788 153.72 18.6218 153.464 18.5194C153.208 18.417 152.932 18.3717 152.657 18.3868C152.381 18.3733 152.106 18.4193 151.85 18.5216C151.593 18.6239 151.362 18.7801 151.172 18.9796C150.805 19.3742 150.621 19.9184 150.615 20.6124Z" fill="#05C4A0"/>
<path d="M166.25 28.6755C165.278 28.6823 164.323 28.4106 163.5 27.8925C162.614 27.3102 161.917 26.4828 161.493 25.511C160.991 24.4467 160.74 23.1059 160.74 21.4886C160.74 19.7971 161.004 18.4226 161.53 17.365C162.056 16.3075 162.737 15.5319 163.573 15.0382C164.367 14.559 165.276 14.3038 166.204 14.2997C167.244 14.2997 168.092 14.56 168.749 15.0807C169.374 15.5574 169.857 16.1963 170.145 16.928H170.218V9.81189H175.254V28.4934H170.264V26.1949H170.155C169.859 26.9124 169.362 27.5288 168.723 27.9694C167.994 28.4602 167.128 28.7074 166.25 28.6755ZM168.112 24.8089C168.438 24.8169 168.761 24.7384 169.048 24.5814C169.335 24.4243 169.575 24.1943 169.744 23.9146C170.138 23.317 170.336 22.5077 170.337 21.4866C170.339 20.4655 170.141 19.6521 169.744 19.0464C169.572 18.7704 169.331 18.5442 169.045 18.3902C168.758 18.2361 168.437 18.1596 168.112 18.1683C167.788 18.1578 167.467 18.2338 167.183 18.3885C166.898 18.5433 166.66 18.7711 166.493 19.0484C166.11 19.6352 165.918 20.4486 165.918 21.4886C165.918 22.5286 166.11 23.342 166.493 23.9288C166.66 24.2062 166.898 24.4339 167.183 24.5887C167.467 24.7434 167.788 24.8194 168.112 24.8089Z" fill="#05C4A0"/>
<path d="M176.743 28.4936V14.4819H181.631V17.1467H181.777C182.032 16.162 182.437 15.441 182.991 14.9837C183.541 14.5303 184.235 14.2878 184.948 14.2998C185.381 14.3054 185.811 14.3735 186.224 14.5022V18.7977C185.925 18.7025 185.616 18.6387 185.304 18.6075C184.992 18.5682 184.679 18.5466 184.365 18.5428C184.023 18.5327 183.682 18.5923 183.363 18.7178C183.045 18.8434 182.755 19.0323 182.512 19.2732C182.263 19.5275 182.069 19.8302 181.941 20.1626C181.814 20.495 181.757 20.85 181.773 21.2055V28.5037L176.743 28.4936Z" fill="#05C4A0"/>
<path d="M186.867 28.4936V14.4819H191.758V17.1467H191.904C192.159 16.162 192.563 15.441 193.118 14.9837C193.668 14.5303 194.361 14.2878 195.074 14.2998C195.507 14.3054 195.937 14.3735 196.351 14.5022V18.7977C196.051 18.7025 195.743 18.6387 195.43 18.6075C195.118 18.5682 194.804 18.5466 194.489 18.5428C194.147 18.5329 193.807 18.5925 193.489 18.7181C193.171 18.8436 192.881 19.0325 192.638 19.2732C192.389 19.5275 192.195 19.8302 192.068 20.1626C191.941 20.495 191.884 20.85 191.9 21.2055V28.5037L186.867 28.4936Z" fill="#05C4A0"/>
</svg>
