<svg width="24" height="24" viewBox="0 0 24 24" fill="none" xmlns="http://www.w3.org/2000/svg">
<path d="M6.57588 20V18.1111L7.52588 17.1667H4.67588C4.15338 17.1667 3.70609 16.9817 3.334 16.6118C2.96192 16.2419 2.77588 15.7972 2.77588 15.2778V4.88889C2.77588 4.36944 2.96192 3.92477 3.334 3.55486C3.70609 3.18495 4.15338 3 4.67588 3H19.8759C20.3984 3 20.8457 3.18495 21.2178 3.55486C21.5898 3.92477 21.7759 4.36944 21.7759 4.88889V15.2778C21.7759 15.7972 21.5898 16.2419 21.2178 16.6118C20.8457 16.9817 20.3984 17.1667 19.8759 17.1667H17.0259L17.9759 18.1111V20H6.57588ZM4.67588 15.2778H19.8759V4.88889H4.67588V15.2778Z" fill="url(#paint0_linear_60_3877)"/>
<defs>
<linearGradient id="paint0_linear_60_3877" x1="12.2759" y1="3" x2="12.2759" y2="20" gradientUnits="userSpaceOnUse">
<stop stop-color="#05C4A1"/>
<stop offset="1" stop-color="#027CC4"/>
</linearGradient>
</defs>
</svg>
