<svg width="24" height="24" viewBox="0 0 24 24" fill="none" xmlns="http://www.w3.org/2000/svg">
<path d="M4.77588 22C4.22588 22 3.75505 21.8042 3.36338 21.4125C2.97171 21.0208 2.77588 20.55 2.77588 20V6C2.77588 5.45 2.97171 4.97917 3.36338 4.5875C3.75505 4.19583 4.22588 4 4.77588 4H5.77588V2H7.77588V4H15.7759V2H17.7759V4H18.7759C19.3259 4 19.7967 4.19583 20.1884 4.5875C20.58 4.97917 20.7759 5.45 20.7759 6V12.375L18.7759 14.375V10H4.77588V20H10.9759L12.9759 22H4.77588ZM4.77588 8H18.7759V6H4.77588V8ZM16.3259 22.5L12.7759 18.95L14.1759 17.55L16.3009 19.675L20.5509 15.425L21.9509 16.85L16.3259 22.5Z" fill="url(#paint0_linear_60_3869)"/>
<defs>
<linearGradient id="paint0_linear_60_3869" x1="12.3634" y1="2" x2="12.3634" y2="22.5" gradientUnits="userSpaceOnUse">
<stop stop-color="#05C4A1"/>
<stop offset="1" stop-color="#027CC4"/>
</linearGradient>
</defs>
</svg>
