<svg width="24" height="24" viewBox="0 0 24 24" fill="none" xmlns="http://www.w3.org/2000/svg">
<path d="M20.668 21C20.9847 21 21.2486 20.8944 21.4597 20.6833C21.6708 20.4722 21.7764 20.2083 21.7764 19.8917V15.6167C21.7764 15.388 21.6972 15.1813 21.5389 14.9965C21.3805 14.8118 21.1782 14.6843 20.9319 14.6139L17.2903 13.875C17.044 13.8398 16.7933 13.8618 16.5382 13.941C16.2831 14.0201 16.0764 14.1389 15.918 14.2972L13.4375 16.7778C12.769 16.3907 12.1356 15.9641 11.5375 15.4979C10.9393 15.0317 10.3676 14.5259 9.8222 13.9806C9.24164 13.4176 8.70947 12.8326 8.22567 12.2257C7.74188 11.6188 7.32405 10.9898 6.9722 10.3389L9.53192 7.75278C9.67266 7.61204 9.76942 7.44491 9.8222 7.25139C9.87498 7.05787 9.88377 6.82037 9.84859 6.53889L9.16248 2.84444C9.12729 2.61574 9.01294 2.41782 8.81942 2.25069C8.6259 2.08356 8.406 2 8.1597 2H3.8847C3.56803 2 3.30414 2.10556 3.09303 2.31667C2.88192 2.52778 2.77637 2.79167 2.77637 3.10833C2.77637 5.30741 3.25577 7.48009 4.21456 9.62639C5.17336 11.7727 6.53239 13.7255 8.29165 15.4847C10.0509 17.244 12.0037 18.603 14.15 19.5618C16.2963 20.5206 18.469 21 20.668 21ZM5.99581 8.33333C5.69674 7.64722 5.46803 6.95231 5.3097 6.24861C5.15137 5.54491 5.02822 4.83241 4.94026 4.11111H7.26248L7.73748 6.59167L5.99581 8.33333ZM15.443 17.7278L17.1847 15.9861L19.6653 16.5139V18.8361C18.944 18.7833 18.2315 18.6602 17.5278 18.4667C16.8241 18.2731 16.1291 18.0269 15.443 17.7278Z" fill="url(#paint0_linear_58_622)"/>
<defs>
<linearGradient id="paint0_linear_58_622" x1="12.2764" y1="2" x2="12.2764" y2="21" gradientUnits="userSpaceOnUse">
<stop stop-color="#05C4A1"/>
<stop offset="1" stop-color="#027CC4"/>
</linearGradient>
</defs>
</svg>
