<svg width="34" height="25" viewBox="0 0 34 25" fill="none" xmlns="http://www.w3.org/2000/svg">
<path d="M0 25V20.625C0 19.7396 0.225379 18.9258 0.676136 18.1836C1.12689 17.4414 1.72576 16.875 2.47273 16.4844C4.0697 15.6771 5.69242 15.0716 7.34091 14.668C8.98939 14.2643 10.6636 14.0625 12.3636 14.0625C14.0636 14.0625 15.7379 14.2643 17.3864 14.668C19.0348 15.0716 20.6576 15.6771 22.2545 16.4844C23.0015 16.875 23.6004 17.4414 24.0511 18.1836C24.5019 18.9258 24.7273 19.7396 24.7273 20.625V25H0ZM27.8182 25V20.3125C27.8182 19.1667 27.5027 18.0664 26.8716 17.0117C26.2405 15.957 25.3455 15.0521 24.1864 14.2969C25.5 14.4531 26.7364 14.7201 27.8955 15.0977C29.0545 15.4753 30.1364 15.9375 31.1409 16.4844C32.0682 17.0052 32.7765 17.5846 33.2659 18.2227C33.7553 18.8607 34 19.5573 34 20.3125V25H27.8182ZM7.99773 10.6641C6.78712 9.4401 6.18182 7.96875 6.18182 6.25C6.18182 4.53125 6.78712 3.0599 7.99773 1.83594C9.20833 0.611979 10.6636 0 12.3636 0C14.0636 0 15.5189 0.611979 16.7295 1.83594C17.9402 3.0599 18.5455 4.53125 18.5455 6.25C18.5455 7.96875 17.9402 9.4401 16.7295 10.6641C15.5189 11.888 14.0636 12.5 12.3636 12.5C10.6636 12.5 9.20833 11.888 7.99773 10.6641ZM26.0023 10.6641C24.7917 11.888 23.3364 12.5 21.6364 12.5C21.353 12.5 20.9924 12.4674 20.5545 12.4023C20.1167 12.3372 19.7561 12.2656 19.4727 12.1875C20.1682 11.3542 20.7027 10.4297 21.0761 9.41406C21.4496 8.39844 21.6364 7.34375 21.6364 6.25C21.6364 5.15625 21.4496 4.10156 21.0761 3.08594C20.7027 2.07031 20.1682 1.14583 19.4727 0.3125C19.8333 0.182292 20.1939 0.0976562 20.5545 0.0585938C20.9152 0.0195312 21.2758 0 21.6364 0C23.3364 0 24.7917 0.611979 26.0023 1.83594C27.2129 3.0599 27.8182 4.53125 27.8182 6.25C27.8182 7.96875 27.2129 9.4401 26.0023 10.6641Z" fill="url(#paint0_linear_55_418)"/>
<defs>
<linearGradient id="paint0_linear_55_418" x1="17" y1="0" x2="17" y2="25" gradientUnits="userSpaceOnUse">
<stop stop-color="#05C4A1"/>
<stop offset="1" stop-color="#027CC4"/>
</linearGradient>
</defs>
</svg>
