<svg width="61" height="953" viewBox="0 0 61 953" fill="none" xmlns="http://www.w3.org/2000/svg">
<rect x="1" width="80" height="1" transform="rotate(90 1 0)" fill="url(#paint0_linear_60_3085)" fill-opacity="0.1"/>
<rect x="31" width="80" height="1" transform="rotate(90 31 0)" fill="url(#paint1_linear_60_3085)" fill-opacity="0.1"/>
<rect x="61" width="80" height="1" transform="rotate(90 61 0)" fill="url(#paint2_linear_60_3085)" fill-opacity="0.1"/>
<rect x="60" y="953" width="80" height="1" transform="rotate(-90 60 953)" fill="url(#paint3_linear_60_3085)" fill-opacity="0.1"/>
<rect x="30" y="953" width="80" height="1" transform="rotate(-90 30 953)" fill="url(#paint4_linear_60_3085)" fill-opacity="0.1"/>
<rect y="953" width="80" height="1" transform="rotate(-90 0 953)" fill="url(#paint5_linear_60_3085)" fill-opacity="0.1"/>
<defs>
<linearGradient id="paint0_linear_60_3085" x1="1" y1="0.5" x2="81" y2="0.5" gradientUnits="userSpaceOnUse">
<stop stop-color="white"/>
<stop offset="1" stop-color="white" stop-opacity="0"/>
</linearGradient>
<linearGradient id="paint1_linear_60_3085" x1="31" y1="0.5" x2="111" y2="0.5" gradientUnits="userSpaceOnUse">
<stop stop-color="white"/>
<stop offset="1" stop-color="white" stop-opacity="0"/>
</linearGradient>
<linearGradient id="paint2_linear_60_3085" x1="61" y1="0.5" x2="141" y2="0.5" gradientUnits="userSpaceOnUse">
<stop stop-color="white"/>
<stop offset="1" stop-color="white" stop-opacity="0"/>
</linearGradient>
<linearGradient id="paint3_linear_60_3085" x1="60" y1="953.5" x2="140" y2="953.5" gradientUnits="userSpaceOnUse">
<stop stop-color="white"/>
<stop offset="1" stop-color="white" stop-opacity="0"/>
</linearGradient>
<linearGradient id="paint4_linear_60_3085" x1="30" y1="953.5" x2="110" y2="953.5" gradientUnits="userSpaceOnUse">
<stop stop-color="white"/>
<stop offset="1" stop-color="white" stop-opacity="0"/>
</linearGradient>
<linearGradient id="paint5_linear_60_3085" x1="0" y1="953.5" x2="80" y2="953.5" gradientUnits="userSpaceOnUse">
<stop stop-color="white"/>
<stop offset="1" stop-color="white" stop-opacity="0"/>
</linearGradient>
</defs>
</svg>
