<svg width="25" height="25" viewBox="0 0 25 25" fill="none" xmlns="http://www.w3.org/2000/svg">
<path d="M23.5417 25C20.6481 25 17.7894 24.3692 14.9653 23.1076C12.1412 21.8461 9.57176 20.0579 7.25694 17.7431C4.94213 15.4282 3.15394 12.8588 1.89236 10.0347C0.630787 7.21065 0 4.35185 0 1.45833C0 1.04167 0.138889 0.694444 0.416667 0.416667C0.694444 0.138889 1.04167 0 1.45833 0H7.08333C7.40741 0 7.69676 0.109954 7.95139 0.329861C8.20602 0.549769 8.35648 0.810185 8.40278 1.11111L9.30556 5.97222C9.35185 6.34259 9.34028 6.65509 9.27083 6.90972C9.20139 7.16435 9.07407 7.38426 8.88889 7.56944L5.52083 10.9722C5.9838 11.8287 6.53357 12.6562 7.17014 13.4549C7.80671 14.2535 8.50694 15.0231 9.27083 15.7639C9.98843 16.4815 10.7407 17.147 11.5278 17.7604C12.3148 18.3738 13.1481 18.9352 14.0278 19.4444L17.2917 16.1806C17.5 15.9722 17.772 15.816 18.1076 15.7118C18.4433 15.6076 18.7731 15.5787 19.0972 15.625L23.8889 16.5972C24.213 16.6898 24.4792 16.8576 24.6875 17.1007C24.8958 17.3438 25 17.6157 25 17.9167V23.5417C25 23.9583 24.8611 24.3056 24.5833 24.5833C24.3056 24.8611 23.9583 25 23.5417 25Z" fill="url(#paint0_linear_55_430)"/>
<defs>
<linearGradient id="paint0_linear_55_430" x1="12.5" y1="0" x2="12.5" y2="25" gradientUnits="userSpaceOnUse">
<stop stop-color="#05C4A1"/>
<stop offset="1" stop-color="#027CC4"/>
</linearGradient>
</defs>
</svg>
