<svg width="89" height="18" viewBox="0 0 89 18" fill="none" xmlns="http://www.w3.org/2000/svg">
<path d="M17.7884 2.78443L4.83282 7.45625C4.51468 7.54866 4.23499 7.74157 4.03558 8.00613C3.83618 8.27069 3.72777 8.5927 3.72656 8.92399V16.2372C3.72656 17.4209 4.89292 18.2676 6.04744 17.9235L19.003 13.2516C19.321 13.1591 19.6005 12.9661 19.7997 12.7015C19.9989 12.437 20.1072 12.1151 20.1083 11.7839V4.47069C20.1083 3.28703 18.9438 2.44026 17.7884 2.78443ZM11.8146 13.7734C10.07 13.7734 8.65603 12.3876 8.65603 10.6776C8.65603 8.9677 10.07 7.5819 11.8146 7.5819C13.5591 7.5819 14.9731 8.96861 14.9731 10.6776C14.9731 12.3867 13.5591 13.7734 11.8146 13.7734Z" fill="#05C4A0"/>
<path d="M15.2755 10.5404L2.31996 15.2122C1.16544 15.5564 0 14.7087 0 13.5259V6.21271C0.00198851 5.88204 0.11076 5.56086 0.310108 5.29703C0.509456 5.0332 0.78871 4.84084 1.10626 4.74861L14.0609 0.0776973C15.2163 -0.267386 16.3827 0.580298 16.3827 1.76396V9.07626C16.3803 9.40697 16.2713 9.7281 16.0719 9.99189C15.8724 10.2557 15.5931 10.448 15.2755 10.5404Z" fill="white"/>
<path d="M22.5371 5.69268V4.41797H29.2439V5.69268H26.6462V12.8229H25.1348V5.69268H22.5371Z" fill="white"/>
<path d="M29.3594 12.8233V6.51807H30.8007V7.56971H30.8663C30.9625 7.22884 31.1714 6.93066 31.459 6.72385C31.7406 6.52616 32.0774 6.42258 32.4214 6.42793C32.5043 6.42793 32.5962 6.42793 32.6945 6.43795C32.7804 6.44306 32.8658 6.4534 32.9504 6.4689V7.83467C32.8535 7.80567 32.7541 7.78555 32.6536 7.77457C32.5235 7.7575 32.3924 7.74868 32.2611 7.74817C32.0749 7.74209 31.8893 7.77282 31.7149 7.8386C31.5405 7.90438 31.3809 8.00391 31.245 8.13149C31.112 8.25756 31.0072 8.41037 30.9375 8.57986C30.8679 8.74935 30.8349 8.93168 30.8408 9.11484V12.8215L29.3594 12.8233Z" fill="white"/>
<path d="M35.1897 12.9502C34.5876 12.9502 34.0853 12.7888 33.6828 12.4658C33.2804 12.1429 33.0795 11.6722 33.0801 11.0536C33.0801 10.5802 33.1942 10.2129 33.4224 9.95193C33.6612 9.68311 33.9692 9.48501 34.3129 9.37922C34.69 9.25769 35.0788 9.17591 35.4729 9.13521C36.0283 9.07451 36.4271 9.01836 36.6693 8.96676C36.9115 8.91517 37.0329 8.78254 37.0335 8.56887V8.54338C37.0335 8.23441 36.9424 7.99525 36.7603 7.82589C36.5782 7.65654 36.3142 7.57156 35.9682 7.57095C35.604 7.57095 35.316 7.65047 35.1041 7.80951C34.9066 7.95029 34.7574 8.14875 34.6771 8.37766L33.2895 8.18099C33.4272 7.63793 33.7707 7.1697 34.2473 6.87532C34.7257 6.58214 35.2956 6.43555 35.9573 6.43555C36.2621 6.43582 36.5658 6.47157 36.8623 6.54208C37.1563 6.61101 37.436 6.73055 37.689 6.89535C37.9426 7.06305 38.1501 7.29156 38.2927 7.56003C38.4546 7.88334 38.5329 8.24209 38.5203 8.60347V12.8228H37.0899V11.9569H37.0444C36.8914 12.2425 36.6656 12.4825 36.3898 12.6525C36.085 12.851 35.685 12.9502 35.1897 12.9502ZM35.5758 11.8576C36.0237 11.8576 36.3794 11.7289 36.6429 11.4716C36.7678 11.3552 36.8672 11.2142 36.9349 11.0575C37.0026 10.9008 37.0371 10.7318 37.0362 10.5611V9.81809C36.9318 9.88771 36.8139 9.93456 36.6902 9.95558C36.5218 9.99564 36.3433 10.0284 36.1539 10.0566L35.6741 10.1258C35.3818 10.1592 35.0995 10.2522 34.8446 10.399C34.7369 10.4636 34.649 10.5565 34.5904 10.6676C34.5318 10.7786 34.5048 10.9037 34.5123 11.0291C34.5054 11.1494 34.5292 11.2694 34.5817 11.3779C34.6341 11.4864 34.7133 11.5798 34.8119 11.6491C35.0386 11.7964 35.3056 11.8696 35.5758 11.8585V11.8576Z" fill="white"/>
<path d="M41.9052 12.9302C41.4339 12.9369 40.9711 12.8042 40.575 12.5487C40.1671 12.2741 39.8454 11.8896 39.6472 11.4397C39.4208 10.9541 39.3072 10.3659 39.3066 9.67512C39.3066 8.97402 39.4223 8.3828 39.6535 7.90144C39.8557 7.45536 40.1811 7.07629 40.5914 6.80883C40.9855 6.55943 41.4434 6.42946 41.9098 6.43461C42.2235 6.42177 42.5357 6.48421 42.8203 6.61672C43.0374 6.72628 43.23 6.87866 43.3866 7.06469C43.513 7.21653 43.6221 7.38206 43.7117 7.55818H43.7727V4.41602H45.2632V12.8227H43.8063V11.8294H43.7153C43.6239 12.0041 43.512 12.1673 43.3821 12.3156C43.2221 12.4986 43.0266 12.6473 42.8075 12.7526C42.525 12.8821 42.2158 12.943 41.9052 12.9302ZM42.3195 11.711C42.5348 11.7191 42.7486 11.6713 42.94 11.5724C43.1315 11.4735 43.2941 11.3268 43.4121 11.1465C43.6689 10.7708 43.7975 10.2776 43.7982 9.66692C43.7988 9.05627 43.6719 8.56824 43.4176 8.20282C43.1626 7.83862 42.7957 7.65652 42.3168 7.65652C41.8215 7.65652 41.4481 7.8453 41.1968 8.22285C40.9455 8.60041 40.8196 9.08359 40.819 9.67238C40.819 10.2636 40.9462 10.7519 41.2005 11.1374C41.4548 11.5228 41.8278 11.7153 42.3195 11.7147V11.711Z" fill="white"/>
<path d="M49.1929 12.9465C48.561 12.9465 48.0147 12.8139 47.5539 12.5486C47.0985 12.2862 46.7307 11.8949 46.4969 11.4241C46.2398 10.8893 46.1134 10.301 46.1281 9.70781C46.1154 9.11711 46.2417 8.53169 46.4969 7.99879C46.7285 7.52421 47.0904 7.12535 47.5403 6.84881C48.016 6.56635 48.5615 6.42342 49.1146 6.43635C49.6122 6.43189 50.1036 6.54679 50.5477 6.77142C50.9947 7.00397 51.3615 7.36564 51.6002 7.8094C51.8643 8.27922 51.9963 8.8835 51.9963 9.62223V10.0775H47.6068C47.6147 10.6165 47.7646 11.0365 48.0565 11.3376C48.3485 11.6387 48.7349 11.7905 49.2156 11.7929C49.5064 11.8004 49.7938 11.7287 50.0469 11.5853C50.2802 11.4483 50.4583 11.2342 50.5504 10.9798L51.9371 11.1364C51.8107 11.6764 51.4827 12.1478 51.0202 12.4539C50.5377 12.7829 49.9285 12.9471 49.1929 12.9465ZM47.6068 9.07592H50.5704C50.5814 8.68351 50.4383 8.30241 50.1716 8.01427C50.0382 7.8755 49.8768 7.76653 49.6983 7.6945C49.5197 7.62248 49.3279 7.58903 49.1355 7.59634C48.9347 7.58872 48.7345 7.62391 48.5483 7.69957C48.3622 7.77524 48.1942 7.88965 48.0556 8.03521C47.7839 8.31561 47.6242 8.68582 47.6068 9.07592Z" fill="white"/>
<path d="M52.5234 12.8227V4.41602H58.4326V6.25524H54.8042V7.70022H58.072V9.53854H54.8042V12.8227H52.5234Z" fill="#05C4A0"/>
<path d="M62.5454 10.0647V6.51367H64.8144V12.8189H62.661V11.6244H62.5955C62.4698 12.0106 62.2164 12.3426 61.8771 12.5658C61.5198 12.7813 61.1118 12.8981 60.6946 12.9043C60.2774 12.9106 59.8661 12.806 59.5025 12.6013C59.173 12.3998 58.907 12.1094 58.7349 11.7637C58.5471 11.3834 58.4519 10.9641 58.4572 10.5399V6.51731H60.7235V10.0683C60.7235 10.3797 60.8033 10.6243 60.963 10.8022C61.047 10.893 61.1501 10.9641 61.2648 11.0104C61.3796 11.0567 61.5032 11.077 61.6267 11.0699C61.7515 11.0757 61.876 11.0549 61.9921 11.0087C62.1081 10.9626 62.2129 10.8921 62.2996 10.8022C62.4665 10.6225 62.5484 10.3767 62.5454 10.0647Z" fill="#05C4A0"/>
<path d="M67.776 9.2751V12.8215H65.5098V6.51626H67.6604V7.7154H67.7278C67.8558 7.32776 68.1129 6.99577 68.4562 6.77484C68.812 6.55939 69.2188 6.4424 69.6348 6.43584C70.0507 6.42928 70.461 6.53339 70.8235 6.73751C71.1529 6.94025 71.419 7.23102 71.5919 7.577C71.7786 7.95575 71.8707 8.37406 71.8605 8.79617V12.8188H69.5979V9.2751C69.5979 8.96249 69.5193 8.71757 69.3621 8.54032C69.277 8.44997 69.1731 8.3793 69.0579 8.33322C68.9426 8.28714 68.8187 8.26678 68.6947 8.27354C68.5707 8.2675 68.4468 8.28819 68.3315 8.33422C68.2162 8.38025 68.1122 8.45054 68.0264 8.54032C67.8616 8.71787 67.7787 8.9628 67.776 9.2751Z" fill="#05C4A0"/>
<path d="M74.8133 12.9047C74.3756 12.9077 73.9463 12.7855 73.5759 12.5523C73.1772 12.2903 72.8634 11.918 72.6727 11.4807C72.4469 11.0017 72.334 10.3984 72.334 9.67056C72.334 8.90938 72.4523 8.29084 72.6891 7.81495C72.9258 7.33905 73.2323 6.99002 73.6087 6.76786C73.966 6.55223 74.375 6.43739 74.7923 6.43552C75.2603 6.43552 75.6421 6.55268 75.9378 6.78698C76.2192 7.00151 76.4364 7.28901 76.566 7.61828H76.5988V4.41602H78.865V12.8227H76.6197V11.7884H76.5706C76.4374 12.1113 76.2135 12.3887 75.9259 12.5869C75.598 12.8078 75.2084 12.9191 74.8133 12.9047ZM75.6509 11.1647C75.798 11.1683 75.9434 11.133 76.0725 11.0623C76.2015 10.9916 76.3096 10.8881 76.3857 10.7623C76.563 10.4934 76.6519 10.1292 76.6525 9.66965C76.6531 9.21015 76.5642 8.84412 76.3857 8.57158C76.3083 8.44738 76.1998 8.34557 76.0709 8.27626C75.942 8.20694 75.7972 8.17252 75.6509 8.17642C75.5053 8.1717 75.361 8.20591 75.233 8.27553C75.1049 8.34515 74.9978 8.44766 74.9225 8.57249C74.7502 8.83654 74.664 9.20256 74.664 9.67056C74.664 10.1386 74.7502 10.5046 74.9225 10.7686C74.9978 10.8935 75.1049 10.996 75.233 11.0656C75.361 11.1352 75.5053 11.1694 75.6509 11.1647Z" fill="#05C4A0"/>
<path d="M79.5352 12.823V6.51768H81.7349V7.71683H81.8005C81.9152 7.27371 82.0973 6.94927 82.3468 6.74349C82.5943 6.53944 82.9065 6.43033 83.2273 6.43574C83.4221 6.43824 83.6157 6.46891 83.8018 6.52679V8.4598C83.667 8.41694 83.5282 8.38825 83.3875 8.37421C83.2473 8.35653 83.1063 8.3468 82.965 8.34508C82.811 8.34055 82.6577 8.36735 82.5143 8.42385C82.3709 8.48035 82.2405 8.56538 82.131 8.67377C82.019 8.78819 81.9317 8.92442 81.8745 9.07401C81.8173 9.22359 81.7915 9.38333 81.7987 9.54331V12.8275L79.5352 12.823Z" fill="#05C4A0"/>
<path d="M84.0898 12.823V6.51768H86.2905V7.71683H86.3561C86.4708 7.27371 86.6529 6.94927 86.9024 6.74349C87.1499 6.53944 87.4621 6.43033 87.7828 6.43574C87.9777 6.43824 88.1713 6.46891 88.3574 6.52679V8.4598C88.2226 8.41694 88.0838 8.38825 87.9431 8.37421C87.8026 8.35653 87.6613 8.3468 87.5197 8.34508C87.3658 8.34062 87.2126 8.36746 87.0694 8.42396C86.9262 8.48046 86.796 8.56544 86.6866 8.67377C86.5746 8.78819 86.4872 8.92442 86.4301 9.07401C86.3729 9.22359 86.3471 9.38333 86.3543 9.54331V12.8275L84.0898 12.823Z" fill="#05C4A0"/>
</svg>
