<svg viewBox="-1 -3 46 46" xmlns="http://www.w3.org/2000/svg" fill="none">
  <path d="M39.5317 6.18591L10.7416 16.5677C10.0346 16.773 9.41304 17.2017 8.96992 17.7896C8.52679 18.3775 8.28588 19.0931 8.2832 19.8293V36.0808C8.2832 38.7112 10.8751 40.5929 13.4407 39.828L42.2309 29.4463C42.9375 29.2405 43.5586 28.8117 44.0013 28.2238C44.444 27.6359 44.6846 26.9206 44.6872 26.1846V9.93314C44.6872 7.3028 42.0993 5.42109 39.5317 6.18591ZM26.2566 30.6056C22.3798 30.6056 19.2376 27.5261 19.2376 23.7263C19.2376 19.9264 22.3798 16.8469 26.2566 16.8469C30.1333 16.8469 33.2755 19.9285 33.2755 23.7263C33.2755 27.5241 30.1333 30.6056 26.2566 30.6056Z" fill="#A66CFF"/>
  <path d="M33.9456 23.4229L5.15548 33.8047C2.58988 34.5695 0 32.6858 0 30.0574V13.8059C0.00441891 13.0711 0.246134 12.3574 0.68913 11.7711C1.13213 11.1848 1.75269 10.7574 2.45836 10.5524L31.2465 0.17266C33.8141 -0.594187 36.406 1.28955 36.406 3.91989V20.1694C36.4008 20.9043 36.1586 21.6179 35.7153 22.2041C35.272 22.7903 34.6513 23.2177 33.9456 23.4229Z" fill="#FFFFFF"/>
</svg>
