<svg width="98" height="25" viewBox="0 0 98 25" fill="none" xmlns="http://www.w3.org/2000/svg">
<g clip-path="url(#clip0_79_1083)">
<path d="M25.7547 8.5293H35.6776V10.3806H31.7759V20.7879H29.6305V10.3806H25.7461V8.5293H25.7547ZM35.2537 11.9119H37.0877V13.6248H37.1223C37.1829 13.3826 37.2954 13.149 37.4597 12.9241C37.6241 12.6991 37.8231 12.4829 38.0567 12.3012C38.2902 12.1109 38.5498 11.9638 38.8353 11.8427C39.1207 11.7302 39.4149 11.6697 39.709 11.6697C39.9339 11.6697 40.0983 11.6783 40.1848 11.687C40.2713 11.6956 40.3579 11.7129 40.453 11.7216V13.6075C40.3146 13.5816 40.1762 13.5643 40.0291 13.5469C39.882 13.5296 39.7436 13.521 39.6052 13.521C39.2765 13.521 38.965 13.5902 38.6709 13.72C38.3767 13.8497 38.1259 14.0487 37.9096 14.2996C37.6933 14.5591 37.5203 14.8706 37.3905 15.2512C37.2607 15.6319 37.2002 16.0644 37.2002 16.5575V20.7793H35.245V11.9119H35.2537ZM49.4415 20.7879H47.521V19.5508H47.4864C47.2442 20.0007 46.8895 20.3554 46.4136 20.6236C45.9378 20.8918 45.4534 21.0302 44.9603 21.0302C43.7924 21.0302 42.9445 20.7447 42.4255 20.1651C41.9064 19.5854 41.6469 18.7117 41.6469 17.5438V11.9119H43.602V17.3534C43.602 18.132 43.7491 18.6857 44.0519 19.0058C44.346 19.3259 44.7699 19.4903 45.3063 19.4903C45.7216 19.4903 46.0589 19.4297 46.3358 19.2999C46.6126 19.1702 46.8375 19.0058 47.0019 18.7895C47.1749 18.5819 47.2961 18.3224 47.3739 18.0282C47.4518 17.7341 47.4864 17.414 47.4864 17.068V11.9205H49.4415V20.7879ZM52.7722 17.9417C52.8328 18.5127 53.0491 18.9106 53.4211 19.1442C53.8017 19.3692 54.2516 19.4903 54.7793 19.4903C54.961 19.4903 55.1686 19.473 55.4022 19.447C55.6358 19.4211 55.8607 19.3605 56.0597 19.2826C56.2673 19.2048 56.4317 19.0837 56.5701 18.9279C56.6998 18.7722 56.7604 18.5733 56.7517 18.3224C56.7431 18.0715 56.6479 17.8639 56.4749 17.7081C56.3019 17.5438 56.0856 17.4227 55.8174 17.3188C55.5492 17.2237 55.2464 17.1372 54.9004 17.068C54.5544 16.9987 54.2083 16.9209 53.8536 16.843C53.4903 16.7652 53.1356 16.6614 52.7982 16.5489C52.4608 16.4364 52.158 16.2807 51.8898 16.0817C51.6216 15.8914 51.4053 15.6405 51.2496 15.3377C51.0853 15.0349 51.0074 14.6629 51.0074 14.2131C51.0074 13.7286 51.1285 13.3307 51.3621 13.0019C51.5957 12.6732 51.8985 12.4137 52.2532 12.2147C52.6165 12.0157 53.0145 11.8773 53.4557 11.7908C53.8969 11.7129 54.3208 11.6697 54.7187 11.6697C55.1772 11.6697 55.6184 11.7216 56.0337 11.8167C56.449 11.9119 56.8296 12.0676 57.167 12.2925C57.5044 12.5088 57.7812 12.7943 58.0062 13.1403C58.2311 13.4864 58.3695 13.9103 58.4301 14.4034H56.3884C56.2932 13.9362 56.0856 13.6162 55.7482 13.4604C55.4108 13.2961 55.0215 13.2182 54.589 13.2182C54.4505 13.2182 54.2862 13.2269 54.0958 13.2528C53.9055 13.2788 53.7325 13.322 53.5595 13.3826C53.3951 13.4431 53.2567 13.5383 53.1356 13.6594C53.0231 13.7805 52.9626 13.9362 52.9626 14.1352C52.9626 14.3775 53.0491 14.5678 53.2134 14.7149C53.3778 14.8619 53.5941 14.983 53.8623 15.0868C54.1305 15.182 54.4332 15.2685 54.7793 15.3377C55.1253 15.4069 55.48 15.4848 55.8434 15.5627C56.1981 15.6405 56.5441 15.7443 56.8902 15.8568C57.2362 15.9693 57.539 16.125 57.8072 16.324C58.0754 16.5229 58.2916 16.7652 58.456 17.0593C58.6204 17.3534 58.7069 17.7254 58.7069 18.158C58.7069 18.6857 58.5858 19.1269 58.3436 19.4989C58.1013 19.8623 57.7899 20.1651 57.4092 20.39C57.0286 20.6149 56.596 20.7879 56.1289 20.8918C55.6617 20.9956 55.1945 21.0475 54.736 21.0475C54.1737 21.0475 53.6546 20.9869 53.1788 20.8571C52.703 20.7274 52.2878 20.5371 51.9417 20.2862C51.5957 20.0266 51.3188 19.7065 51.1199 19.3259C50.9209 18.9453 50.8171 18.4867 50.7998 17.959H52.7722V17.9417ZM59.226 11.9119H60.7053V9.24734H62.6605V11.9119H64.4253V13.3739H62.6605V18.1147C62.6605 18.3224 62.6691 18.4954 62.6864 18.6511C62.7037 18.7982 62.747 18.9279 62.8075 19.0318C62.8681 19.1356 62.9633 19.2134 63.093 19.2653C63.2228 19.3172 63.3872 19.3432 63.6121 19.3432C63.7505 19.3432 63.8889 19.3432 64.0273 19.3346C64.1658 19.3259 64.3042 19.3086 64.4426 19.274V20.7879C64.2263 20.8139 64.01 20.8312 63.8111 20.8571C63.6034 20.8831 63.3958 20.8918 63.1795 20.8918C62.6605 20.8918 62.2452 20.8398 61.9338 20.7447C61.6223 20.6495 61.3715 20.5025 61.1984 20.3121C61.0168 20.1218 60.9043 19.8882 60.8351 19.6027C60.7745 19.3172 60.7313 18.9885 60.7226 18.6252V13.3912H59.2433V11.9119H59.226ZM65.8095 11.9119H67.6608V13.1144H67.6954C67.9723 12.5953 68.3529 12.232 68.846 12.007C69.3391 11.7821 69.8669 11.6697 70.4465 11.6697C71.1472 11.6697 71.7528 11.7908 72.2719 12.0417C72.7909 12.2839 73.2235 12.6213 73.5695 13.0538C73.9156 13.4864 74.1665 13.9882 74.3395 14.5591C74.5125 15.1301 74.599 15.7443 74.599 16.3932C74.599 16.9901 74.5212 17.5697 74.3654 18.1234C74.2097 18.6857 73.9762 19.1788 73.6647 19.6114C73.3533 20.0439 72.9553 20.3813 72.4708 20.6409C71.9864 20.9004 71.4241 21.0302 70.7666 21.0302C70.4811 21.0302 70.1956 21.0042 69.9101 20.9523C69.6246 20.9004 69.3478 20.8139 69.0883 20.7014C68.8287 20.589 68.5778 20.4419 68.3616 20.2602C68.1366 20.0785 67.955 19.8709 67.7992 19.6373H67.7646V24.0667H65.8095V11.9119ZM72.6439 16.3586C72.6439 15.9606 72.592 15.5713 72.4882 15.1907C72.3843 14.81 72.2286 14.4813 72.021 14.1871C71.8134 13.893 71.5538 13.6594 71.251 13.4864C70.9396 13.3134 70.5849 13.2182 70.1869 13.2182C69.3651 13.2182 68.7422 13.5037 68.327 14.0747C67.9117 14.6456 67.7041 15.4069 67.7041 16.3586C67.7041 16.8084 67.756 17.2237 67.8685 17.6043C67.9809 17.985 68.1366 18.3137 68.3616 18.5906C68.5778 18.8674 68.8374 19.0837 69.1402 19.2394C69.443 19.4038 69.7977 19.4816 70.1956 19.4816C70.6455 19.4816 71.0175 19.3865 71.3289 19.2048C71.6403 19.0231 71.8912 18.7809 72.0902 18.4954C72.2892 18.2013 72.4362 17.8725 72.5228 17.5005C72.6006 17.1285 72.6439 16.7479 72.6439 16.3586ZM76.0957 8.5293H78.0508V10.3806H76.0957V8.5293ZM76.0957 11.9119H78.0508V20.7879H76.0957V11.9119ZM79.7984 8.5293H81.7535V20.7879H79.7984V8.5293ZM87.7487 21.0302C87.0393 21.0302 86.4078 20.9091 85.8542 20.6755C85.3005 20.4419 84.8333 20.1132 84.444 19.7066C84.0634 19.2913 83.7692 18.7982 83.5703 18.2272C83.3713 17.6562 83.2675 17.0247 83.2675 16.3413C83.2675 15.6665 83.3713 15.0436 83.5703 14.4726C83.7692 13.9016 84.0634 13.4085 84.444 12.9933C84.8247 12.578 85.3005 12.2579 85.8542 12.0244C86.4078 11.7908 87.0393 11.6697 87.7487 11.6697C88.4581 11.6697 89.0897 11.7908 89.6433 12.0244C90.197 12.2579 90.6642 12.5867 91.0535 12.9933C91.4341 13.4085 91.7283 13.9016 91.9272 14.4726C92.1262 15.0436 92.23 15.6665 92.23 16.3413C92.23 17.0247 92.1262 17.6562 91.9272 18.2272C91.7283 18.7982 91.4341 19.2913 91.0535 19.7066C90.6728 20.1218 90.197 20.4419 89.6433 20.6755C89.0897 20.9091 88.4581 21.0302 87.7487 21.0302ZM87.7487 19.4816C88.1813 19.4816 88.562 19.3865 88.882 19.2048C89.2021 19.0231 89.4617 18.7809 89.6693 18.4867C89.8769 18.1926 90.024 17.8552 90.1278 17.4832C90.223 17.1112 90.2749 16.7306 90.2749 16.3413C90.2749 15.9606 90.223 15.5886 90.1278 15.208C90.0327 14.8273 89.8769 14.4986 89.6693 14.2044C89.4617 13.9103 89.2021 13.6767 88.882 13.495C88.562 13.3134 88.1813 13.2182 87.7487 13.2182C87.3162 13.2182 86.9355 13.3134 86.6154 13.495C86.2954 13.6767 86.0358 13.9189 85.8282 14.2044C85.6206 14.4986 85.4735 14.8273 85.3697 15.208C85.2745 15.5886 85.2226 15.9606 85.2226 16.3413C85.2226 16.7306 85.2745 17.1112 85.3697 17.4832C85.4648 17.8552 85.6206 18.1926 85.8282 18.4867C86.0358 18.7809 86.2954 19.0231 86.6154 19.2048C86.9355 19.3951 87.3162 19.4816 87.7487 19.4816ZM92.801 11.9119H94.2804V9.24734H96.2355V11.9119H98.0003V13.3739H96.2355V18.1147C96.2355 18.3224 96.2442 18.4954 96.2615 18.6511C96.2788 18.7982 96.322 18.9279 96.3826 19.0318C96.4431 19.1356 96.5383 19.2134 96.6681 19.2653C96.7978 19.3172 96.9622 19.3432 97.1871 19.3432C97.3256 19.3432 97.464 19.3432 97.6024 19.3346C97.7408 19.3259 97.8792 19.3086 98.0176 19.274V20.7879C97.8014 20.8139 97.5851 20.8312 97.3861 20.8571C97.1785 20.8831 96.9709 20.8918 96.7546 20.8918C96.2355 20.8918 95.8203 20.8398 95.5088 20.7447C95.1974 20.6495 94.9465 20.5025 94.7735 20.3121C94.5918 20.1218 94.4793 19.8882 94.4101 19.6027C94.3496 19.3172 94.3063 18.9885 94.2977 18.6252V13.3912H92.8183V11.9119H92.801Z" fill="white"/>
<path d="M23.4705 8.53001H14.5079L11.7396 0L8.96257 8.53001L0 8.52136L7.2583 13.7985L4.48129 22.3199L11.7396 17.0514L18.9892 22.3199L16.2209 13.7985L23.4705 8.53001Z" fill="#00B67A"/>
<path d="M16.8444 15.728L16.2215 13.7988L11.7402 17.0517L16.8444 15.728Z" fill="#005128"/>
</g>
<defs>
<clipPath id="clip0_79_1083">
<rect width="98" height="24.0674" fill="white"/>
</clipPath>
</defs>
</svg>
