<svg xmlns="http://www.w3.org/2000/svg" viewBox="0 0 1200 630" width="1200" height="630" role="img" aria-label="TradeFundrr blog cover: Options Trader Funding Programs">
<defs>
<linearGradient id="bg" x1="0" y1="0" x2="1" y2="1"><stop offset="0" stop-color="#0a1626"/><stop offset="1" stop-color="#08191a"/></linearGradient>
<radialGradient id="glow" cx="80%" cy="20%" r="60%"><stop offset="0" stop-color="#22d3a8" stop-opacity="0.22"/><stop offset="1" stop-color="#22d3a8" stop-opacity="0"/></radialGradient>
</defs>
<rect width="1200" height="630" fill="url(#bg)"/>
<rect width="1200" height="630" fill="url(#glow)"/>
<g stroke="#ffffff" stroke-opacity="0.045" stroke-width="1"><line x1="0" y1="0" x2="0" y2="630"/><line x1="80" y1="0" x2="80" y2="630"/><line x1="160" y1="0" x2="160" y2="630"/><line x1="240" y1="0" x2="240" y2="630"/><line x1="320" y1="0" x2="320" y2="630"/><line x1="400" y1="0" x2="400" y2="630"/><line x1="480" y1="0" x2="480" y2="630"/><line x1="560" y1="0" x2="560" y2="630"/><line x1="640" y1="0" x2="640" y2="630"/><line x1="720" y1="0" x2="720" y2="630"/><line x1="800" y1="0" x2="800" y2="630"/><line x1="880" y1="0" x2="880" y2="630"/><line x1="960" y1="0" x2="960" y2="630"/><line x1="1040" y1="0" x2="1040" y2="630"/><line x1="1120" y1="0" x2="1120" y2="630"/><line x1="1200" y1="0" x2="1200" y2="630"/><line x1="0" y1="0" x2="1200" y2="0"/><line x1="0" y1="80" x2="1200" y2="80"/><line x1="0" y1="160" x2="1200" y2="160"/><line x1="0" y1="240" x2="1200" y2="240"/><line x1="0" y1="320" x2="1200" y2="320"/><line x1="0" y1="400" x2="1200" y2="400"/><line x1="0" y1="480" x2="1200" y2="480"/><line x1="0" y1="560" x2="1200" y2="560"/></g>
<polyline points="0,540 150,500 300,520 450,440 600,470 750,380 900,410 1050,310 1200,345" fill="none" stroke="#22d3a8" stroke-opacity="0.35" stroke-width="3"/>
<text x="80" y="150" fill="#22d3a8" font-family="ui-monospace,SFMono-Regular,Menlo,monospace" font-size="26" font-weight="700" letter-spacing="6">FUNDING</text>
<text x="80" y="290" fill="#ffffff" font-family="system-ui,-apple-system,Segoe UI,Roboto,Arial,sans-serif" font-size="62" font-weight="800" letter-spacing="-1">Options Trader</text><text x="80" y="368" fill="#ffffff" font-family="system-ui,-apple-system,Segoe UI,Roboto,Arial,sans-serif" font-size="62" font-weight="800" letter-spacing="-1">Funding Programs</text>
<text x="82" y="438" fill="#9fb4c8" font-family="ui-monospace,SFMono-Regular,Menlo,monospace" font-size="23" font-weight="600" letter-spacing="2">FUNDED · UP TO $25K SIMULATED</text>
<text x="80" y="582" fill="#ffffff" fill-opacity="0.9" font-family="system-ui,-apple-system,Segoe UI,Roboto,Arial,sans-serif" font-size="26" font-weight="800" letter-spacing="-0.3">Trade<tspan fill="#22d3a8">Fundrr</tspan></text>
</svg>
